<svg width="16" height="16" viewBox="0 0 16 16" fill="none" xmlns="http://www.w3.org/2000/svg">
<path d="M7.99797 5.33218C6.52898 5.33218 5.33018 6.53099 5.33018 7.99997C5.33018 9.46896 6.52898 10.6678 7.99797 10.6678C9.46696 10.6678 10.6658 9.46896 10.6658 7.99997C10.6658 6.53099 9.46696 5.33218 7.99797 5.33218ZM15.9993 7.99997C15.9993 6.89523 16.0094 5.80049 15.9473 4.69775C15.8853 3.41689 15.5931 2.28013 14.6564 1.3435C13.7178 0.404867 12.5831 0.114672 11.3022 0.0526302C10.1974 -0.00941147 9.10271 0.000595289 7.99997 0.000595289C6.89523 0.000595289 5.80049 -0.00941147 4.69775 0.0526302C3.41689 0.114672 2.28013 0.406868 1.3435 1.3435C0.404867 2.28213 0.114672 3.41689 0.0526302 4.69775C-0.00941147 5.8025 0.000595288 6.89723 0.000595288 7.99997C0.000595288 9.10271 -0.00941147 10.1995 0.0526302 11.3022C0.114672 12.5831 0.406868 13.7198 1.3435 14.6564C2.28213 15.5951 3.41689 15.8853 4.69775 15.9473C5.8025 16.0094 6.89723 15.9994 7.99997 15.9994C9.10471 15.9994 10.1994 16.0094 11.3022 15.9473C12.5831 15.8853 13.7198 15.5931 14.6564 14.6564C15.5951 13.7178 15.8853 12.5831 15.9473 11.3022C16.0114 10.1995 15.9993 9.10472 15.9993 7.99997ZM7.99797 12.1047C5.72644 12.1047 3.89321 10.2715 3.89321 7.99997C3.89321 5.72845 5.72644 3.89521 7.99797 3.89521C10.2695 3.89521 12.1027 5.72845 12.1027 7.99997C12.1027 10.2715 10.2695 12.1047 7.99797 12.1047ZM12.2708 4.68574C11.7405 4.68574 11.3122 4.25746 11.3122 3.7271C11.3122 3.19674 11.7405 2.76846 12.2708 2.76846C12.8012 2.76846 13.2295 3.19674 13.2295 3.7271C13.2296 3.85304 13.205 3.97776 13.1568 4.09414C13.1087 4.21052 13.0381 4.31627 12.9491 4.40532C12.86 4.49437 12.7543 4.56497 12.6379 4.61309C12.5215 4.66121 12.3968 4.6859 12.2708 4.68574Z" fill="white" fill-opacity="0.4"/>
</svg>
