<svg width="31" height="31" viewBox="0 0 31 31" fill="none" xmlns="http://www.w3.org/2000/svg">
<path d="M15.0224 13.3073C18.0844 13.3073 21.1452 13.3073 24.2072 13.3073C24.8184 13.3073 25.001 13.4755 25.001 14.0416C25.001 16.7875 25.001 19.5333 25.001 22.2792C25.001 22.8297 24.8196 22.9991 24.2242 22.9991C18.0698 22.9991 11.9154 22.9991 5.76215 22.9991C5.18628 22.9991 5 22.8252 5 22.2948C5 19.5389 5 16.7841 5 14.0283C5 13.4822 5.18871 13.3062 5.77554 13.3062C8.85702 13.3073 11.9397 13.3073 15.0224 13.3073ZM8.52342 16.5245C9.10904 16.5245 9.66787 16.5267 10.2267 16.5234C10.6151 16.5211 10.8671 16.3172 10.8732 16.0096C10.8781 15.6887 10.6236 15.4803 10.2145 15.4792C9.4962 15.477 8.77788 15.477 8.05956 15.4792C7.55917 15.4803 7.36072 15.6575 7.36072 16.1133C7.35828 17.4762 7.35828 18.8402 7.36072 20.2031C7.36194 20.6533 7.56769 20.8472 8.062 20.8505C8.75962 20.8572 9.45724 20.8528 10.1549 20.8505C10.2474 20.8505 10.3424 20.8405 10.4325 20.8193C10.721 20.7525 10.8939 20.5352 10.8744 20.2744C10.8549 20.0147 10.6187 19.7907 10.3253 19.7818C9.92963 19.7707 9.53394 19.7785 9.13826 19.7785C8.93615 19.7785 8.73283 19.7785 8.53438 19.7785C8.53438 19.3896 8.53438 19.0519 8.53438 18.6931C8.67074 18.6931 8.78397 18.6931 8.8972 18.6931C9.35497 18.6931 9.81397 18.6987 10.2717 18.6909C10.6126 18.6853 10.8586 18.4713 10.8756 18.1872C10.8927 17.9086 10.6967 17.6801 10.3667 17.63C10.1841 17.6021 9.99294 17.6155 9.80666 17.6144C9.38419 17.6121 8.96172 17.6144 8.52586 17.6144C8.52342 17.2399 8.52342 16.909 8.52342 16.5245ZM13.8232 19.3573C14.0448 19.7607 14.2359 20.1161 14.4344 20.4683C14.6255 20.8093 14.9627 20.9319 15.2769 20.7792C15.5751 20.6343 15.6555 20.3212 15.4729 19.9847C15.1782 19.4397 14.869 18.9004 14.5902 18.3487C14.5354 18.2406 14.5378 18.0679 14.5926 17.9587C14.8727 17.4082 15.1807 16.8688 15.4753 16.3239C15.6616 15.9784 15.5678 15.6564 15.2476 15.5171C14.9335 15.3811 14.6243 15.5037 14.4344 15.8436C14.2371 16.1957 14.0448 16.5512 13.8232 16.9558C13.6162 16.5769 13.4324 16.2392 13.2473 15.9027C13.0269 15.5015 12.7116 15.3666 12.3804 15.5282C12.0542 15.6865 11.9908 15.9963 12.2076 16.3919C12.4912 16.9101 12.7713 17.4305 13.0647 17.9453C13.1499 18.0958 13.1499 18.2195 13.0659 18.3688C12.7603 18.9082 12.4571 19.4497 12.1747 19.9991C12.1053 20.1351 12.0688 20.3134 12.0992 20.4583C12.1455 20.68 12.333 20.8138 12.5886 20.8372C12.8553 20.8606 13.0549 20.7513 13.1755 20.5385C13.3861 20.1618 13.5906 19.7807 13.8232 19.3573ZM20.3051 16.5234C20.3051 16.6905 20.3051 16.8042 20.3051 16.9179C20.3051 18.0423 20.3027 19.1667 20.3075 20.2911C20.3088 20.6087 20.5376 20.8282 20.8542 20.8438C21.144 20.8583 21.3887 20.6789 21.4471 20.3981C21.4678 20.2967 21.4702 20.1897 21.4715 20.0861C21.4727 19.0185 21.4715 17.952 21.4727 16.8844C21.4727 16.7741 21.4836 16.6627 21.4897 16.5245C21.704 16.5245 21.8891 16.5301 22.0741 16.5234C22.4114 16.5122 22.6378 16.2938 22.6342 15.994C22.6305 15.7076 22.4077 15.4859 22.0887 15.4825C21.2876 15.4747 20.4865 15.4747 19.6842 15.4825C19.3567 15.4848 19.1168 15.7255 19.1229 16.0141C19.129 16.2905 19.3652 16.5111 19.6781 16.5234C19.8753 16.5289 20.0701 16.5234 20.3051 16.5234ZM17.9383 18.1604C17.9383 17.4751 17.9395 16.7897 17.9383 16.1044C17.9371 15.7188 17.7313 15.4892 17.3819 15.4792C17.0094 15.4681 16.7634 15.692 16.7622 16.081C16.7561 17.4617 16.7561 18.8413 16.7622 20.222C16.7634 20.602 17.024 20.855 17.3734 20.8438C17.7155 20.8327 17.9383 20.5886 17.9395 20.2176C17.9395 19.5311 17.9383 18.8458 17.9383 18.1604Z" fill="#4A4A47"/>
<path d="M10.879 12.2163C9.69802 12.2163 8.54871 12.2163 7.3787 12.2163C7.37018 12.1382 7.35557 12.0658 7.35557 11.9934C7.35435 11.2122 7.35191 10.4321 7.35557 9.65094C7.35678 9.19293 7.55767 9.00571 8.04832 9.00348C8.76542 9.00014 9.48374 9.00014 10.2008 9.00348C10.6671 9.00571 10.8778 9.20519 10.879 9.63868C10.8802 10.4098 10.879 11.181 10.879 11.9533C10.879 12.0346 10.879 12.1182 10.879 12.2163Z" fill="#4A4A47"/>
<path d="M19.1227 12.2117C19.1227 11.2857 19.1142 10.373 19.1288 9.46145C19.1325 9.21183 19.3893 9.01012 19.6779 9.00678C20.479 8.99787 21.2801 8.99675 22.08 9.00567C22.3953 9.00901 22.6291 9.20291 22.6327 9.48262C22.6461 10.3853 22.6376 11.289 22.6376 12.2106C21.4688 12.2117 20.3195 12.2117 19.1227 12.2117Z" fill="#4A4A47"/>
<rect x="0.5" y="1.5" width="29.011" height="28.9947" rx="5.5" stroke="#4A4A47"/>
<rect x="0.5" y="1.45776" width="29" height="29" rx="5.5" stroke="#4A4A47"/>
</svg>
