<svg width="31" height="30" viewBox="0 0 31 30" fill="none" xmlns="http://www.w3.org/2000/svg">
<g opacity="0.7">
<path d="M6 18.6602C6.06868 18.3432 6.11447 18.0171 6.21063 17.7094C6.99362 15.1601 9.84628 13.8602 12.2823 14.9396C12.5936 15.0774 12.6669 15.059 12.8821 14.7972C15.1578 11.9586 17.4381 9.11993 19.7138 6.28128C19.9931 5.93219 20.1809 5.91382 20.5334 6.19401C20.6571 6.29506 20.7807 6.39611 20.9089 6.49717C21.1928 6.73142 21.2203 6.94271 20.9913 7.23209C19.4986 9.09237 18.0059 10.9526 16.5132 12.8129C15.7073 13.8189 14.9014 14.8202 14.0955 15.8261C13.9169 16.0466 13.9169 16.1431 14.0863 16.3727C15.982 18.9863 14.6679 22.6288 11.5405 23.4234C9.04497 24.0527 6.46705 22.3532 6.0641 19.8039C6.04579 19.6845 6.02289 19.5696 6 19.4548C6 19.1884 6 18.9266 6 18.6602ZM13.372 19.0644C13.3766 17.4521 12.0945 16.1568 10.4827 16.1522C8.88471 16.1431 7.57972 17.4521 7.57972 19.0552C7.57972 20.6445 8.88013 21.9581 10.4644 21.9627C12.0716 21.9627 13.372 20.672 13.372 19.0644Z" fill="black"/>
<path d="M21.3348 7.79688C21.9255 8.27458 22.5116 8.74768 23.0931 9.2162C23.1892 9.29428 23.29 9.37237 23.3861 9.45505C23.5784 9.625 23.6059 9.85007 23.4502 10.0522C23.2991 10.2543 23.1435 10.4518 22.9786 10.6401C22.8229 10.8147 22.5986 10.8376 22.4062 10.6998C22.3009 10.6217 22.2002 10.5345 22.0949 10.4564C21.6278 10.1027 21.0097 10.1624 20.6342 10.6126C20.3915 10.9019 20.1534 11.1959 19.9245 11.4945C19.5582 11.9722 19.636 12.5969 20.1031 12.9827C20.1946 13.0608 20.2954 13.1297 20.3824 13.2124C20.5564 13.3685 20.5838 13.5982 20.4465 13.7865C20.2954 13.9932 20.1305 14.1953 19.9657 14.3882C19.81 14.5674 19.5811 14.5949 19.3979 14.4525C18.7111 13.9059 18.0288 13.3502 17.3282 12.7898C18.6699 11.1224 19.9932 9.46883 21.3348 7.79688Z" fill="black"/>
<path d="M24.323 29.9947C18.1118 29.9947 11.9006 29.9947 5.68949 29.9947C5.44218 29.9472 5.18537 29.9186 4.94757 29.8616C2.03698 29.2148 0.0204949 26.7322 0.0109832 23.736C-0.00804026 17.9053 0.00147147 12.0746 0.0109832 6.25344C0.0109832 5.15007 0.2678 4.10378 0.838504 3.15261C2.09405 1.06954 3.95835 0.0137392 6.38384 0.00422744C12.1289 -0.0052843 17.8835 0.00422744 23.6286 0.00422744C23.7808 0.00422744 23.9425 0.00422744 24.0947 0.0137392C26.758 0.251532 28.6128 1.59269 29.602 4.07525C29.8017 4.57937 29.8778 5.14056 30.011 5.68273C30.011 11.8939 30.011 18.1051 30.011 24.3162C29.992 24.4113 29.9634 24.5065 29.9539 24.5921C29.5544 27.008 28.2228 28.7011 25.94 29.5952C25.4168 29.7855 24.8556 29.8616 24.323 29.9947ZM15.03 1.13612C12.167 1.13612 9.31346 1.1171 6.45043 1.14564C5.84168 1.15515 5.19488 1.23124 4.61466 1.42148C2.44599 2.14437 1.14288 4.0372 1.14288 6.3866C1.13337 12.1222 1.13337 17.8673 1.15239 23.6028C1.15239 24.2116 1.238 24.8394 1.43774 25.4101C2.17966 27.5692 4.06298 28.8533 6.42189 28.8533C12.1384 28.8533 17.8645 28.8533 23.5811 28.8533C24.0186 28.8533 24.4656 28.8153 24.8842 28.7201C27.3001 28.1494 28.8506 26.171 28.8601 23.6409C28.8696 17.8768 28.8696 12.1222 28.8601 6.35806C28.8601 4.57937 28.1562 3.1431 26.7199 2.0873C25.7783 1.40245 24.713 1.13612 23.5525 1.13612C20.718 1.13612 17.874 1.13612 15.03 1.13612Z" fill="black"/>
</g>
</svg>
