<svg width="31" height="30" viewBox="0 0 31 30" fill="none" xmlns="http://www.w3.org/2000/svg">
<g opacity="0.7">
<path d="M24.323 29.9947C18.1118 29.9947 11.9006 29.9947 5.68949 29.9947C5.44218 29.9472 5.18537 29.9186 4.94757 29.8616C2.03698 29.2148 0.0204949 26.7322 0.0109832 23.736C-0.00804026 17.9053 0.00147147 12.0746 0.0109832 6.25344C0.0109832 5.15007 0.2678 4.10378 0.838504 3.15261C2.09405 1.06954 3.95835 0.0137392 6.38384 0.00422744C12.1289 -0.0052843 17.8835 0.00422744 23.6286 0.00422744C23.7808 0.00422744 23.9425 0.00422744 24.0947 0.0137392C26.758 0.251532 28.6128 1.59269 29.602 4.07525C29.8017 4.57937 29.8778 5.14056 30.011 5.68273C30.011 11.8939 30.011 18.1051 30.011 24.3162C29.992 24.4113 29.9634 24.5065 29.9539 24.5921C29.5544 27.008 28.2228 28.7011 25.94 29.5952C25.4168 29.7855 24.8556 29.8616 24.323 29.9947ZM15.03 1.13612C12.167 1.13612 9.31346 1.1171 6.45043 1.14564C5.84168 1.15515 5.19488 1.23124 4.61466 1.42148C2.44599 2.14437 1.14288 4.0372 1.14288 6.3866C1.13337 12.1222 1.13337 17.8673 1.15239 23.6028C1.15239 24.2116 1.238 24.8394 1.43774 25.4101C2.17966 27.5692 4.06298 28.8533 6.42189 28.8533C12.1384 28.8533 17.8645 28.8533 23.5811 28.8533C24.0186 28.8533 24.4656 28.8153 24.8842 28.7201C27.3001 28.1494 28.8506 26.171 28.8601 23.6409C28.8696 17.8768 28.8696 12.1222 28.8601 6.35806C28.8601 4.57937 28.1562 3.1431 26.7199 2.0873C25.7783 1.40245 24.713 1.13612 23.5525 1.13612C20.718 1.13612 17.874 1.13612 15.03 1.13612Z" fill="black"/>
<path d="M7.2376 14.0911C6.14968 13.9423 5.98531 13.7467 6.00097 12.6431C6.00879 11.9622 6.37665 11.6021 7.05758 11.5943C7.33934 11.5943 7.62111 11.5787 7.90287 11.5943C8.09854 11.6021 8.19246 11.5395 8.25508 11.3439C8.47423 10.6238 8.70903 9.91156 8.94383 9.19932C9.40561 7.79833 10.5092 7 11.9806 7C14.2034 7 16.434 7 18.6569 7C20.1674 7 21.2475 7.7905 21.7249 9.23063C21.9597 9.93504 22.1945 10.6394 22.4059 11.3439C22.4607 11.5239 22.5468 11.5943 22.7346 11.5865C23.0477 11.5708 23.3607 11.5787 23.6738 11.5865C24.3078 11.6021 24.66 11.97 24.66 12.604C24.66 12.7292 24.66 12.8544 24.66 12.9875C24.6522 13.6762 24.3078 14.0284 23.619 14.0519C23.5486 14.0519 23.486 14.0597 23.392 14.0676C23.439 14.3806 23.5016 14.6859 23.5329 14.9911C23.5877 15.5703 23.6425 16.1573 23.6503 16.7443C23.666 18.2471 23.6582 19.7498 23.6582 21.2525C23.6582 21.9491 23.2825 22.3248 22.5937 22.3248C22.1319 22.3248 21.678 22.3248 21.2162 22.3248C20.5274 22.3248 20.1518 21.9413 20.1518 21.2525C20.1518 20.8142 20.1518 20.3759 20.1518 19.9142C16.935 19.9142 13.7416 19.9142 10.5092 19.9142C10.5092 20.3368 10.5092 20.7516 10.5092 21.1664C10.5092 21.9804 10.1648 22.3248 9.35082 22.3248C8.9047 22.3248 8.45074 22.3326 8.00462 22.3248C7.39413 22.317 7.00279 21.9256 7.00279 21.3073C7.00279 19.6011 6.98714 17.887 7.01845 16.1808C7.0341 15.5077 7.15933 14.8111 7.2376 14.0911ZM15.3383 12.8622C17.0367 12.8622 18.7351 12.8622 20.4335 12.8622C20.8327 12.8622 20.8797 12.7918 20.7544 12.4083C20.4883 11.563 20.2222 10.7177 19.9483 9.87242C19.7369 9.21497 19.3534 8.94104 18.6725 8.93321C16.4575 8.93321 14.2426 8.93321 12.0276 8.93321C11.3466 8.93321 10.971 9.19932 10.7675 9.84112C10.4935 10.6942 10.2196 11.5474 9.95348 12.4005C9.82826 12.7918 9.87522 12.8544 10.2822 12.8544C11.9571 12.8622 13.6477 12.8622 15.3383 12.8622ZM19.7683 17.2765C20.0813 17.2765 20.3944 17.2844 20.6996 17.2765C21.1066 17.2609 21.3101 17.0496 21.318 16.6504C21.3258 16.3608 21.3258 16.0634 21.318 15.7738C21.3023 15.3668 20.9971 15.1085 20.5979 15.1711C20.2065 15.2338 19.8152 15.312 19.416 15.359C18.2812 15.492 18.4142 15.6877 18.2342 16.5408C18.1481 16.9556 18.3751 17.2531 18.8056 17.2687C19.1186 17.2922 19.4474 17.2765 19.7683 17.2765ZM10.924 17.2765C10.924 17.2844 10.924 17.2844 10.924 17.2765C11.2292 17.2765 11.5267 17.2922 11.8319 17.2765C11.9806 17.2687 12.1528 17.2296 12.2624 17.1435C12.6302 16.8617 12.4659 15.7347 12.0354 15.539C12.0119 15.5233 11.9806 15.5155 11.9571 15.5077C11.3232 15.4059 10.6892 15.2885 10.0552 15.2103C9.64041 15.1633 9.38996 15.4059 9.38213 15.8286C9.3743 16.1025 9.3743 16.3765 9.38213 16.6504C9.39778 17.0417 9.60911 17.2687 10.0004 17.2844C10.2979 17.2922 10.6109 17.2765 10.924 17.2765Z" fill="black"/>
</g>
</svg>
