<svg width="31" height="30" viewBox="0 0 31 30" fill="none" xmlns="http://www.w3.org/2000/svg">
<g opacity="0.7">
<path d="M6 17.3806C6.04436 17.1705 6.07541 16.956 6.12863 16.7459C6.56332 15.0787 8.04482 13.9076 9.75696 13.9031C13.372 13.8942 16.9826 13.8986 20.5976 13.9031C21.8617 13.9031 22.9086 14.9088 22.9928 16.1738C23.0771 17.4477 22.19 18.5696 20.9391 18.7618C20.8105 18.7841 20.673 18.7886 20.5444 18.7931C16.9826 18.7931 13.4163 18.7931 9.85455 18.7931C9.27348 18.7931 8.83879 18.4355 8.75008 17.8902C8.64806 17.2689 9.13598 16.6878 9.78358 16.652C9.85898 16.6476 9.93882 16.652 10.0142 16.652C13.4873 16.652 16.9648 16.652 20.4379 16.652C20.7307 16.652 20.877 16.5448 20.8726 16.3391C20.8682 16.138 20.7262 16.0441 20.4379 16.0441C16.9249 16.0441 13.4119 16.0441 9.89447 16.0441C8.99404 16.0441 8.30208 16.6118 8.14684 17.47C7.97828 18.3908 8.69685 19.325 9.61946 19.392C9.73035 19.401 9.84124 19.401 9.95213 19.401C13.8821 19.401 17.812 19.401 21.7376 19.401C22.1545 19.401 22.5182 19.4993 22.7755 19.8479C23.0194 20.1787 23.0727 20.5408 22.8952 20.9207C22.7178 21.3006 22.4162 21.5062 21.9993 21.5375C21.9238 21.542 21.844 21.542 21.7686 21.542C17.8165 21.542 13.8688 21.542 9.91665 21.542C7.89844 21.542 6.31493 20.1608 6.02661 18.1449C6.02218 18.1137 6.00887 18.0824 6 18.0511C6 17.8276 6 17.6041 6 17.3806Z" fill="black"/>
<path d="M6.56329 14.6628C6.68749 14.0638 6.81612 13.4648 6.94032 12.8704C7.04678 12.3742 7.14879 11.8781 7.25968 11.3864C7.57018 10.0097 8.76779 9.01293 10.1739 9.00846C13.1546 8.99505 16.1398 8.99952 19.1205 9.00846C20.5532 9.01293 21.7464 10.0186 22.0569 11.449C22.2343 12.2714 22.394 13.0939 22.5581 13.9208C22.5625 13.9521 22.5625 13.9833 22.567 14.037C22.4871 13.9744 22.4206 13.9252 22.3541 13.8761C21.8262 13.4917 21.2407 13.2905 20.5887 13.2905C16.9825 13.2905 13.372 13.2861 9.76581 13.2905C8.55488 13.2905 7.52582 13.742 6.66975 14.6002C6.64313 14.627 6.62983 14.6672 6.60765 14.6985C6.59434 14.6896 6.5766 14.6762 6.56329 14.6628ZM11.3582 9.61635C10.9501 9.61635 10.5376 9.61189 10.1295 9.62082C9.06054 9.64317 8.09802 10.4388 7.85849 11.4892C7.8097 11.7082 7.88511 11.8602 8.0714 11.9094C8.24439 11.9541 8.38633 11.8513 8.44843 11.6456C8.71013 10.7293 9.37547 10.2287 10.3158 10.2242C11.0832 10.2242 11.855 10.2242 12.6223 10.2242C12.8486 10.2242 12.9772 10.1125 12.9772 9.9203C12.9772 9.7281 12.8486 9.61635 12.6223 9.61635C12.201 9.61189 11.7796 9.61635 11.3582 9.61635ZM13.8865 9.61635C13.7179 9.62082 13.5893 9.75939 13.5982 9.93371C13.6026 10.0991 13.7312 10.2242 13.8954 10.2242C14.0639 10.2242 14.2014 10.0857 14.197 9.91583C14.1925 9.74598 14.0506 9.61189 13.8865 9.61635Z" fill="black"/>
<path d="M24.323 29.9947C18.1118 29.9947 11.9006 29.9947 5.68949 29.9947C5.44218 29.9472 5.18537 29.9186 4.94757 29.8616C2.03698 29.2148 0.0204949 26.7322 0.0109832 23.736C-0.00804026 17.9053 0.00147147 12.0746 0.0109832 6.25344C0.0109832 5.15007 0.2678 4.10378 0.838504 3.15261C2.09405 1.06954 3.95835 0.0137392 6.38384 0.00422744C12.1289 -0.0052843 17.8835 0.00422744 23.6286 0.00422744C23.7808 0.00422744 23.9425 0.00422744 24.0947 0.0137392C26.758 0.251532 28.6128 1.59269 29.602 4.07525C29.8017 4.57937 29.8778 5.14056 30.011 5.68273C30.011 11.8939 30.011 18.1051 30.011 24.3162C29.992 24.4113 29.9634 24.5065 29.9539 24.5921C29.5544 27.008 28.2228 28.7011 25.94 29.5952C25.4168 29.7855 24.8556 29.8616 24.323 29.9947ZM15.03 1.13612C12.167 1.13612 9.31346 1.1171 6.45043 1.14564C5.84168 1.15515 5.19488 1.23124 4.61466 1.42148C2.44599 2.14437 1.14288 4.0372 1.14288 6.3866C1.13337 12.1222 1.13337 17.8673 1.15239 23.6028C1.15239 24.2116 1.238 24.8394 1.43774 25.4101C2.17966 27.5692 4.06298 28.8533 6.42189 28.8533C12.1384 28.8533 17.8645 28.8533 23.5811 28.8533C24.0186 28.8533 24.4656 28.8153 24.8842 28.7201C27.3001 28.1494 28.8506 26.171 28.8601 23.6409C28.8696 17.8768 28.8696 12.1222 28.8601 6.35806C28.8601 4.57937 28.1562 3.1431 26.7199 2.0873C25.7783 1.40245 24.713 1.13612 23.5525 1.13612C20.718 1.13612 17.874 1.13612 15.03 1.13612Z" fill="black"/>
</g>
</svg>
