<svg width="31" height="31" viewBox="0 0 31 31" fill="none" xmlns="http://www.w3.org/2000/svg">
<path d="M13.2142 8.00977C13.5968 8.00977 13.9706 8.00977 14.3683 8.00977C14.3683 13.3295 14.3683 18.6437 14.3683 23.9789C12.8216 23.9789 11.271 23.9789 9.70405 23.9789C9.973 21.7884 9.79622 19.6835 8.74316 17.7288C9.57778 17.0145 9.83158 16.1276 9.37955 15.0289C11.3379 13.1541 12.6195 10.8149 13.2142 8.00977Z" fill="#4A4A47"/>
<path d="M15.616 23.9813C15.616 18.6475 15.616 13.3474 15.616 8.02344C16.0023 8.02344 16.3824 8.02344 16.789 8.02344C17.0693 9.36776 17.5276 10.6546 18.1804 11.8487C18.837 13.0485 19.6464 14.108 20.6224 15.0215C20.1818 16.0964 20.3989 16.9819 21.2601 17.72C20.2121 19.6537 20.0227 21.7656 20.2992 23.9813C18.7423 23.9813 17.193 23.9813 15.616 23.9813Z" fill="#4A4A47"/>
<path d="M24 13.9986C23.4255 13.9986 22.8926 13.9972 22.3598 14C22.2284 14 22.0845 13.9719 21.9696 14.0225C21.6375 14.1712 21.4102 14.0491 21.1577 13.7923C19.6375 12.2403 18.6021 10.367 18.0554 8.15541C18.0452 8.11752 18.049 8.07402 18.0427 7.99965C18.1437 7.99965 18.2346 7.99965 18.3243 7.99965C19.7852 7.99965 21.2461 7.99824 22.707 7.99965C23.5088 8.00105 23.9987 8.54692 23.9987 9.43939C24 10.8441 23.9987 12.2487 23.9987 13.6534C24 13.7572 24 13.8597 24 13.9986Z" fill="#4A4A47"/>
<path d="M11.9772 7.99986C11.6956 9.2207 11.2751 10.3209 10.6918 11.3438C10.121 12.343 9.43668 13.2326 8.61974 13.9932C8.55534 14.0535 8.45938 14.1111 8.37983 14.1069C7.7384 14.0788 7.09697 14.0353 6.45427 13.9988C6.31538 13.9918 6.17649 13.9974 6.01487 13.9974C6.00982 13.8767 6.00098 13.7771 6.00098 13.6775C6.00098 12.263 6.00098 10.8485 6.00098 9.43259C6.00224 8.55836 6.49341 8.00267 7.27121 8.00127C8.75232 7.99846 10.2322 7.99986 11.7107 7.99986C11.7852 7.99986 11.8597 7.99986 11.9772 7.99986Z" fill="#4A4A47"/>
<path d="M24 18.0008C24 18.4316 24 18.8245 24 19.2175C24 20.3401 24.0013 21.4641 24 22.5867C23.9988 23.4371 23.5026 23.9942 22.7412 23.9984C22.3119 24.0012 21.8813 23.9984 21.4103 23.9984C21.4103 23.1985 21.3977 22.4169 21.4129 21.6367C21.4394 20.3681 21.8144 19.2189 22.4306 18.1622C22.476 18.0836 22.5871 18.0106 22.6692 18.0078C23.0985 17.9924 23.5291 18.0008 24 18.0008Z" fill="#4A4A47"/>
<path d="M6.00472 18.001C6.4719 18.001 6.90121 17.9869 7.33051 18.0122C7.43027 18.0178 7.55653 18.1357 7.61714 18.2395C8.37347 19.5389 8.66136 20.9759 8.60959 22.5082C8.59318 22.9938 8.5654 23.4779 8.54141 23.9803C8.04139 23.9803 7.50855 24.0238 6.98455 23.9676C6.45675 23.9115 6.0224 23.3937 6.01356 22.8057C5.98957 21.2172 6.00472 19.6287 6.00472 18.001Z" fill="#4A4A47"/>
<path d="M23.9788 16.6763C23.3677 16.6763 22.7704 16.6917 22.1732 16.6707C21.8348 16.658 21.5911 16.3395 21.5974 15.9901C21.6025 15.6393 21.8499 15.3376 22.1909 15.3277C22.7793 15.3095 23.3677 15.3221 23.9788 15.3221C23.9788 15.7698 23.9788 16.2006 23.9788 16.6763Z" fill="#4A4A47"/>
<path d="M6.01624 15.3247C6.6362 15.3247 7.24228 15.3065 7.84709 15.3317C8.17034 15.3444 8.40393 15.6615 8.40393 15.9997C8.40393 16.3379 8.1716 16.6508 7.84583 16.6677C7.32309 16.6943 6.79782 16.6789 6.27382 16.6789C6.19175 16.6789 6.11093 16.6705 6.01624 16.6648C6.01624 16.2144 6.01624 15.7836 6.01624 15.3247Z" fill="#4A4A47"/>
<rect x="0.5" y="1.5" width="29.011" height="28.9947" rx="5.5" stroke="#4A4A47"/>
<rect x="0.5" y="1.48944" width="29" height="29" rx="5.5" stroke="#4A4A47"/>
</svg>
