<svg width="31" height="30" viewBox="0 0 31 30" fill="none" xmlns="http://www.w3.org/2000/svg">
<g opacity="0.7">
<path d="M20.5623 6C20.8184 6.10298 21.1015 6.17015 21.3261 6.32239C21.7664 6.61343 21.982 7.05671 21.991 7.58059C22.0045 8.47163 21.9955 9.36716 21.9955 10.2761C17.3365 10.2761 12.6821 10.2761 8.00511 10.2761C8.00511 10.1373 8.00511 10.003 8.00511 9.86865C8.00511 9.16119 8.01859 8.44925 8.00062 7.74179C7.97815 6.83731 8.5712 6.12985 9.40685 6.01791C9.41583 6.01791 9.42931 6.00448 9.4383 6C13.1493 6 16.8558 6 20.5623 6ZM17.6915 8.6776C17.687 8.38656 17.4444 8.14477 17.1523 8.14477C16.8603 8.14925 16.6177 8.39104 16.6177 8.68208C16.6222 8.97313 16.8648 9.21492 17.1568 9.21492C17.4534 9.21492 17.696 8.96865 17.6915 8.6776ZM19.3133 9.21492C19.6054 9.21044 19.848 8.96417 19.8435 8.67313C19.839 8.38208 19.5919 8.14029 19.2999 8.14477C19.0078 8.14925 18.7652 8.39552 18.7697 8.68656C18.7742 8.9776 19.0213 9.21939 19.3133 9.21492Z" fill="black"/>
<path d="M8.00958 11.3687C12.682 11.3687 17.3275 11.3687 21.991 11.3687C21.9955 11.4269 22 11.4761 22 11.5298C22 15.2239 22 18.9179 22 22.6119C22 23.4313 21.5552 24.0313 20.7914 24.2462C20.6342 24.291 20.4635 24.3044 20.2972 24.3044C16.7704 24.3089 13.2436 24.3089 9.71683 24.3044C8.71494 24.3044 8.01408 23.6194 8.01408 22.6298C8.00958 18.9224 8.01408 15.2194 8.01408 11.5119C8.00958 11.4716 8.00958 11.4313 8.00958 11.3687ZM15.0048 12.4343C12.3631 12.4343 10.1616 14.6328 10.1616 17.2657C10.1661 19.9164 12.3451 22.088 15.0048 22.088C17.6645 22.088 19.8435 19.9164 19.848 17.2657C19.848 14.6373 17.642 12.4343 15.0048 12.4343Z" fill="black"/>
<path d="M15.0633 21.0132C12.9472 21.0132 11.2534 19.3386 11.2399 17.2833C11.2399 17.1535 11.2714 17.0236 11.2669 16.8938C11.2624 16.7236 11.3522 16.6744 11.5005 16.6475C12.0351 16.549 12.5114 16.6833 12.9247 17.0192C13.2796 17.3057 13.6301 17.5923 14.0659 17.749C15.1037 18.1162 16.0427 17.9102 16.8828 17.2296C17.2108 16.9654 17.5343 16.6968 17.9701 16.6475C18.1722 16.6251 18.3834 16.652 18.5901 16.6565C18.6934 16.661 18.7248 16.7236 18.7383 16.8222C18.8866 18.2057 18.4059 19.3341 17.3321 20.2117C16.6582 20.7535 15.8719 21.0042 15.0633 21.0132Z" fill="black"/>
<path d="M18.307 15.5328C17.8667 15.5373 17.4578 15.5955 17.0939 15.8014C16.757 15.9895 16.4425 16.2179 16.137 16.4507C15.4316 16.9835 14.6274 16.997 13.931 16.4507C13.5132 16.1193 13.1044 15.7791 12.5697 15.6537C12.2957 15.5865 12.0081 15.5552 11.7341 15.5104C12.062 14.682 13.1942 13.7283 14.4926 13.5492C16.1594 13.3119 17.669 14.2611 18.307 15.5328Z" fill="black"/>
<path d="M24.323 29.9947C18.1118 29.9947 11.9006 29.9947 5.68949 29.9947C5.44218 29.9472 5.18537 29.9186 4.94757 29.8616C2.03698 29.2148 0.0204949 26.7322 0.0109832 23.736C-0.00804026 17.9053 0.00147147 12.0746 0.0109832 6.25344C0.0109832 5.15007 0.2678 4.10378 0.838504 3.15261C2.09405 1.06954 3.95835 0.0137392 6.38384 0.00422744C12.1289 -0.0052843 17.8835 0.00422744 23.6286 0.00422744C23.7808 0.00422744 23.9425 0.00422744 24.0947 0.0137392C26.758 0.251532 28.6128 1.59269 29.602 4.07525C29.8017 4.57937 29.8778 5.14056 30.011 5.68273C30.011 11.8939 30.011 18.1051 30.011 24.3162C29.992 24.4113 29.9634 24.5065 29.9539 24.5921C29.5544 27.008 28.2228 28.7011 25.94 29.5952C25.4168 29.7855 24.8556 29.8616 24.323 29.9947ZM15.03 1.13612C12.167 1.13612 9.31346 1.1171 6.45043 1.14564C5.84168 1.15515 5.19488 1.23124 4.61466 1.42148C2.44599 2.14437 1.14288 4.0372 1.14288 6.3866C1.13337 12.1222 1.13337 17.8673 1.15239 23.6028C1.15239 24.2116 1.238 24.8394 1.43774 25.4101C2.17966 27.5692 4.06298 28.8533 6.42189 28.8533C12.1384 28.8533 17.8645 28.8533 23.5811 28.8533C24.0186 28.8533 24.4656 28.8153 24.8842 28.7201C27.3001 28.1494 28.8506 26.171 28.8601 23.6409C28.8696 17.8768 28.8696 12.1222 28.8601 6.35806C28.8601 4.57937 28.1562 3.1431 26.7199 2.0873C25.7783 1.40245 24.713 1.13612 23.5525 1.13612C20.718 1.13612 17.874 1.13612 15.03 1.13612Z" fill="black"/>
</g>
</svg>
