<svg width="31" height="31" viewBox="0 0 31 31" fill="none" xmlns="http://www.w3.org/2000/svg">
<path d="M16.3364 21.8029C17.4141 21.8029 18.4919 21.7886 19.5696 21.8118C19.8738 21.8181 19.9627 21.6966 20.0057 21.4395C20.2453 20.0236 20.6348 18.6469 21.1696 17.3149C21.9405 15.3972 22.9411 13.6206 24.489 12.1985C24.5967 12.1002 24.7071 12.0029 24.8273 11.9208C25.1764 11.6815 25.5874 11.7369 25.836 12.0494C26.0908 12.3699 26.0442 12.7859 25.7077 13.0752C25.0302 13.6581 24.4603 14.3313 23.9703 15.075C22.7777 16.8891 22.0553 18.8898 21.586 20.9914C21.446 21.6181 21.3931 22.2716 21.1885 22.8751C20.546 24.7678 18.7656 25.9962 16.7617 25.9971C14.7597 25.9971 12.999 24.7588 12.326 22.8769C12.1079 22.268 12.4247 21.8064 13.0717 21.8038C14.1602 21.8002 15.2487 21.8029 16.3364 21.8029Z" fill="#4A4A47"/>
<path d="M12.264 17.8958C10.5285 17.8958 8.79203 17.8958 7.05651 17.8958C6.43642 17.8958 6.33412 17.8128 6.24258 17.2084C6.17707 16.7772 6.11605 16.3451 6.07567 15.9112C6.0299 15.4264 6.21207 15.2247 6.69127 15.2247C10.4145 15.222 14.1368 15.222 17.86 15.2247C18.3608 15.2247 18.5456 15.4666 18.4738 15.9648C18.4146 16.3754 18.3653 16.7879 18.3213 17.2013C18.2639 17.7414 18.1068 17.894 17.5675 17.8949C15.7979 17.8976 14.0309 17.8958 12.264 17.8958Z" fill="#4A4A47"/>
<path d="M11.8573 24.5447C11.116 24.5447 10.4708 24.5447 9.79059 24.5447C9.62189 22.5368 9.45228 20.5236 9.28088 18.4819C10.1092 18.4819 10.9258 18.4819 11.7837 18.4819C11.7837 18.7809 11.7837 19.0791 11.7837 19.3764C11.7837 19.7407 11.7828 20.1049 11.7837 20.4692C11.7855 20.92 11.7711 21.3244 11.4597 21.7423C10.9644 22.4074 11.2524 23.127 11.5728 23.8037C11.6778 24.0278 11.7514 24.267 11.8573 24.5447Z" fill="#4A4A47"/>
<path d="M8.80805 24.4873C8.16911 24.4534 7.55082 23.8758 7.44852 23.2241C7.29417 22.2402 7.15777 21.2537 7.0088 20.269C6.93342 19.7673 6.84728 19.2664 6.7692 18.7647C6.75485 18.6745 6.75933 18.5817 6.75305 18.4558C7.23315 18.4558 7.69081 18.4486 8.14758 18.4647C8.2077 18.4665 8.3091 18.5879 8.31539 18.6602C8.43115 19.9431 8.53435 21.226 8.64113 22.5098C8.69498 23.1607 8.75061 23.8106 8.80805 24.4873Z" fill="#4A4A47"/>
<path d="M12.0242 7.29629C11.9138 7.81232 11.8187 8.28905 11.7074 8.76222C11.6311 9.08451 11.6275 9.38716 11.7702 9.69963C11.9326 10.0541 11.7702 10.4522 11.431 10.621C11.09 10.7906 10.6853 10.679 10.4744 10.3442C10.1388 9.81123 10.1119 9.22736 10.2267 8.63099C10.2877 8.31673 10.4008 8.01051 10.4439 7.69447C10.4744 7.46771 10.4636 7.22219 10.4089 7.00079C10.3102 6.60083 10.46 6.2089 10.8163 6.06248C11.1878 5.90982 11.5853 6.04552 11.7594 6.4312C11.8851 6.70974 11.9416 7.01686 12.0242 7.29629Z" fill="#4A4A47"/>
<path d="M14.3573 7.33104C14.238 7.90688 14.1115 8.42023 14.0343 8.9416C14.0011 9.16301 14.0289 9.41477 14.1025 9.62725C14.2461 10.0415 14.1384 10.4441 13.783 10.62C13.4034 10.8075 13.0023 10.662 12.778 10.2692C12.4396 9.67546 12.4899 9.05141 12.6182 8.42112C12.6766 8.13722 12.769 7.85957 12.8103 7.57388C12.8354 7.39711 12.8273 7.2007 12.7753 7.03107C12.646 6.61415 12.7842 6.22401 13.154 6.0642C13.5273 5.90261 13.9428 6.04813 14.1133 6.45167C14.2362 6.74092 14.2856 7.06143 14.3573 7.33104Z" fill="#4A4A47"/>
<path d="M8.95972 14.6698C8.90319 13.9878 8.84845 13.3191 8.79102 12.6281C9.79698 12.6281 10.7733 12.6281 11.7658 12.6281C11.7658 13.3119 11.7658 13.9824 11.7658 14.6698C10.829 14.6698 9.90466 14.6698 8.95972 14.6698Z" fill="#4A4A47"/>
<path d="M12.7897 14.6636C12.7897 13.9744 12.7897 13.3111 12.7897 12.6281C13.7714 12.6281 14.7379 12.6281 15.7555 12.6281C15.7026 13.3057 15.6505 13.9735 15.5958 14.6636C14.6625 14.6636 13.7382 14.6636 12.7897 14.6636Z" fill="#4A4A47"/>
<path d="M15.0754 20.8572C14.2974 20.8572 13.5508 20.8572 12.7925 20.8572C12.7925 20.0573 12.7925 19.2735 12.7925 18.4726C13.61 18.4726 14.4087 18.4726 15.263 18.4726C15.2001 19.2726 15.1382 20.0609 15.0754 20.8572Z" fill="#4A4A47"/>
<path d="M7.81188 12.6128C7.86931 13.3145 7.92315 13.9814 7.97969 14.6706C7.34973 14.6706 6.75925 14.6706 6.13917 14.6706C6.09071 14.2876 6.01802 13.9108 6.00097 13.5305C5.97854 13.0163 6.34736 12.636 6.85886 12.6154C7.16936 12.6029 7.47985 12.6128 7.81188 12.6128Z" fill="#4A4A47"/>
<path d="M16.5632 14.6901C16.626 13.975 16.6844 13.3081 16.7445 12.6216C17.1241 12.6216 17.4768 12.5984 17.8258 12.6278C18.2171 12.6609 18.5689 13.0635 18.5572 13.4724C18.5464 13.8322 18.4818 14.192 18.4244 14.5491C18.4154 14.6035 18.3176 14.6821 18.2602 14.683C17.7092 14.6937 17.1582 14.6901 16.5632 14.6901Z" fill="#4A4A47"/>
<path d="M16.2534 18.4754C16.7739 18.4754 17.28 18.4754 17.8194 18.4754C17.7242 19.1021 17.6372 19.7145 17.5358 20.3243C17.4443 20.8751 17.4371 20.8742 16.8816 20.8742C16.6124 20.8742 16.3441 20.8742 16.0435 20.8742C16.1152 20.0582 16.1834 19.2771 16.2534 18.4754Z" fill="#4A4A47"/>
<rect x="0.5" y="1.5" width="29.011" height="28.9947" rx="5.5" stroke="#4A4A47"/>
<rect x="0.5" y="1.46304" width="29" height="29" rx="5.5" stroke="#4A4A47"/>
</svg>
