<svg width="41" height="40" viewBox="0 0 41 40" fill="none" xmlns="http://www.w3.org/2000/svg">
<path d="M39.9941 4.68296C39.9863 2.9124 39.2185 1.52573 37.6752 0.609117C36.9779 0.193899 36.2023 0.00587573 35.3954 0.00587573C25.1481 -0.00195858 14.893 -0.00195858 4.63791 0.00587573C2.29545 0.00587573 0.39955 1.69025 0.0940117 3.97787C0.078343 4.07971 0.0313372 4.17373 0 4.26774V35.699C0.0470058 35.9105 0.0940116 36.122 0.141017 36.3414C0.603241 38.3156 2.02908 39.6161 4.0425 39.9138C4.12868 39.9295 4.21486 39.9687 4.2932 40H35.7244C35.936 39.953 36.1475 39.906 36.359 39.859C38.5604 39.3419 39.9863 37.5479 39.9941 35.2916C39.9941 28.7734 39.9941 22.2631 39.9941 15.745C40.002 12.055 40.0176 8.36508 39.9941 4.68296ZM30.2796 15.6745C30.1856 15.7842 30.0837 15.886 29.9819 15.9879C26.5113 19.4585 23.0407 22.9369 19.5623 26.4075C18.5908 27.3789 17.6977 27.3789 16.7341 26.4231C15.0027 24.6918 13.2635 22.9682 11.5399 21.229C10.6076 20.2889 10.9524 18.7925 12.1745 18.3852C12.8953 18.1501 13.4985 18.3617 14.0234 18.8787C15.2769 20.1322 16.5304 21.3857 17.7839 22.6392C17.8936 22.7489 18.0032 22.8507 18.1442 22.9839C18.2853 22.8507 18.4028 22.741 18.5203 22.6235C21.56 19.5838 24.5997 16.5441 27.6394 13.5044C28.3602 12.7836 29.1749 12.6739 29.927 13.1675C30.781 13.7159 30.9455 14.8989 30.2796 15.6745Z" fill="#29A727"/>
<path d="M30.2796 15.6745C30.1856 15.7842 30.0838 15.8861 29.9819 15.9879C26.5113 19.4585 23.0407 22.9369 19.5623 26.4075C18.5908 27.379 17.6977 27.379 16.7341 26.4232C15.0027 24.6918 13.2635 22.9683 11.54 21.2291C10.6077 20.2889 10.9524 18.7926 12.1745 18.3852C12.8953 18.1502 13.4985 18.3617 14.0234 18.8788C15.2769 20.1323 16.5304 21.3858 17.7839 22.6392C17.8936 22.7489 18.0033 22.8508 18.1443 22.984C18.2853 22.8508 18.4028 22.7411 18.5203 22.6236C21.56 19.5839 24.5997 16.5442 27.6395 13.5044C28.3602 12.7837 29.175 12.674 29.9271 13.1676C30.781 13.716 30.9455 14.8989 30.2796 15.6745Z" fill="white"/>
</svg>
