<svg width="17" height="13" viewBox="0 0 17 13" fill="none" xmlns="http://www.w3.org/2000/svg">
<g opacity="0.6">
<path d="M13.8125 13H2.4375C1.79125 12.9993 1.17167 12.7423 0.714706 12.2853C0.257739 11.8283 0.000705409 11.2087 0 10.5625V2.4375C0.000705409 1.79125 0.257739 1.17167 0.714706 0.714706C1.17167 0.257739 1.79125 0.000705409 2.4375 0H13.8125C14.4587 0.000705409 15.0783 0.257739 15.5353 0.714706C15.9923 1.17167 16.2493 1.79125 16.25 2.4375V10.5625C16.2493 11.2087 15.9923 11.8283 15.5353 12.2853C15.0783 12.7423 14.4587 12.9993 13.8125 13V13Z" fill="#ABABAB"/>
<path d="M16.25 2.4375C16.2493 1.79125 15.9923 1.17167 15.5353 0.714706C15.0783 0.257739 14.4587 0.000705409 13.8125 0H2.4375C1.79125 0.000705409 1.17167 0.257739 0.714706 0.714706C0.257739 1.17167 0.000705409 1.79125 0 2.4375V3.29956L7.7013 8.00595C7.82892 8.0838 7.97552 8.12498 8.12502 8.12498C8.27451 8.12498 8.42111 8.0838 8.54873 8.00595L16.25 3.29956V2.4375Z" fill="#858282"/>
</g>
</svg>
