<svg width="158" height="42" viewBox="0 0 158 42" fill="none" xmlns="http://www.w3.org/2000/svg">
<g clip-path="url(#clip0_975_172)">
<path d="M58.6693 18.6503V23.272H56.1789V20.8534H47.9412V23.272H45.4508L45.4747 18.6503H45.9297C46.6242 18.6264 47.127 18.1235 47.4144 17.1177C47.7018 16.112 47.8694 14.6991 47.9412 12.8313L48.0849 9.19141H57.0649V18.6503H58.6693ZM49.9767 16.5909C49.8091 17.5248 49.5217 18.2193 49.1625 18.6743H54.3829V11.3945H50.3838L50.3359 13.0947C50.2641 14.4836 50.1443 15.6331 49.9767 16.5909Z" fill="white"/>
<path d="M62.7882 20.2789C61.8063 19.752 61.064 19.0336 60.5132 18.1237C59.9624 17.2137 59.699 16.184 59.699 15.0346C59.699 13.8851 59.9864 12.8554 60.5132 11.9454C61.04 11.0355 61.8303 10.3171 62.7882 9.79024C63.77 9.26341 64.8476 9 66.0688 9C67.2901 9 68.3677 9.26341 69.3256 9.79024C70.2835 10.3171 71.0497 11.0355 71.6005 11.9454C72.1513 12.8554 72.4387 13.8851 72.4387 15.0346C72.4387 16.184 72.1513 17.2137 71.6005 18.1237C71.0497 19.0336 70.2835 19.752 69.3256 20.2789C68.3677 20.8057 67.2662 21.0691 66.0688 21.0691C64.8476 21.0452 63.746 20.8057 62.7882 20.2789ZM67.9367 18.2913C68.4875 17.98 68.9185 17.525 69.2538 16.9742C69.5651 16.3995 69.7327 15.753 69.7327 15.0346C69.7327 14.3162 69.5651 13.6696 69.2538 13.0949C68.9424 12.5202 68.5114 12.0891 67.9367 11.7778C67.3859 11.4665 66.7633 11.2989 66.0688 11.2989C65.3744 11.2989 64.7518 11.4665 64.201 11.7778C63.6502 12.0891 63.2192 12.5441 62.8839 13.0949C62.5726 13.6696 62.405 14.3162 62.405 15.0346C62.405 15.753 62.5726 16.3995 62.8839 16.9742C63.1952 17.549 63.6263 17.98 64.201 18.2913C64.7518 18.6026 65.3744 18.7702 66.0688 18.7702C66.7393 18.7463 67.362 18.6026 67.9367 18.2913Z" fill="white"/>
<path d="M85.1543 20.8534L85.1304 13.861L81.706 19.6082H80.5087L77.0843 13.9807V20.8295H74.546V9.19141H76.773L81.1313 16.4472L85.4417 9.19141H87.6687L87.6927 20.8534H85.1543Z" fill="white"/>
<path d="M105.82 9.19094L100.863 18.4343C100.384 19.3204 99.8097 19.9909 99.1392 20.4459C98.4687 20.9009 97.7263 21.1403 96.9361 21.1403C96.3135 21.1403 95.6909 20.9966 95.0443 20.7332L95.6909 18.6738C96.1458 18.8175 96.5529 18.8893 96.8642 18.8893C97.1995 18.8893 97.4868 18.8175 97.7742 18.6499C98.0376 18.4822 98.2771 18.2428 98.5166 17.8836L98.6123 17.7399L94.0146 9.16699H96.8882L99.9773 15.441L103.186 9.16699H105.82V9.19094Z" fill="white"/>
<path d="M119.829 9.69429C120.595 10.0295 121.17 10.5324 121.577 11.155C121.984 11.7776 122.2 12.5439 122.2 13.406C122.2 14.2681 121.984 15.0104 121.577 15.657C121.17 16.3036 120.571 16.7825 119.829 17.1177C119.063 17.453 118.177 17.6206 117.147 17.6206H114.8V20.8295H112.094V9.19141H117.147C118.177 9.19141 119.063 9.35903 119.829 9.69429ZM118.823 14.9147C119.254 14.5555 119.446 14.0765 119.446 13.43C119.446 12.7834 119.23 12.2805 118.823 11.9213C118.392 11.5621 117.794 11.3945 116.979 11.3945H114.776V15.4415H116.979C117.794 15.4415 118.416 15.2739 118.823 14.9147Z" fill="white"/>
<path d="M133.024 18.6982V20.8534H123.996V9.19141H132.808V11.3466H126.678V13.8849H132.09V15.9923H126.678V18.6982H133.024Z" fill="white"/>
<path d="M139.729 16.1599H137.861V20.8534H135.179V9.19141H137.861V13.9089H139.801L142.866 9.19141H145.715L141.908 14.8189L145.835 20.8534H142.77L139.729 16.1599Z" fill="white"/>
<path d="M147.08 9.19141H149.762V16.7825L155.318 9.19141H157.856V20.8534H155.198V13.2623L149.643 20.8534H147.08V9.19141Z" fill="white"/>
<path d="M48.923 31.2221H46.241L45.6663 32.5152H45.3071L47.4144 27.9175H47.7496L49.8569 32.5152H49.4977L48.923 31.2221ZM48.8033 30.9348L47.582 28.2767L46.3847 30.9348H48.8033Z" fill="white"/>
<path d="M55.1252 27.9175V32.5152H54.7899V28.2048H51.6769V32.5152H51.3416V27.9175H55.1252Z" fill="white"/>
<path d="M61.064 27.9175V32.5152H60.7287V28.2048H57.6157V32.5152H57.2804V27.9175H61.064Z" fill="white"/>
<path d="M66.1407 31.2221H63.4586L62.8839 32.5152H62.5008L64.6081 27.9175H64.9433L67.0506 32.5152H66.6914L66.1407 31.2221ZM65.997 30.9348L64.7757 28.2767L63.5784 30.9348H65.997Z" fill="white"/>
<path d="M71.5526 28.3246C71.8878 28.588 72.0555 28.9711 72.0555 29.474C72.0555 29.9529 71.8878 30.3361 71.5526 30.5995C71.2173 30.8629 70.7623 31.0066 70.1876 31.0066H68.8706V32.5152H68.5353V27.9175H70.1876C70.7623 27.9175 71.2173 28.0612 71.5526 28.3246ZM71.3131 30.384C71.5765 30.1685 71.6963 29.8572 71.6963 29.474C71.6963 29.0909 71.5765 28.7556 71.3131 28.5401C71.0497 28.3246 70.6905 28.2048 70.1876 28.2048H68.8706V30.6953H70.1876C70.6666 30.7192 71.0497 30.5995 71.3131 30.384Z" fill="white"/>
<path d="M76.3419 28.2288H74.6896V32.5392H74.3544V28.2288H72.7021V27.9175H76.3419V28.2288Z" fill="white"/>
<path d="M80.4128 31.2221H77.7308L77.1561 32.5152H76.7969L78.9042 27.9175H79.2395L81.3468 32.5152H80.9876L80.4128 31.2221ZM80.2931 30.9348L79.0718 28.2767L77.8745 30.9348H80.2931Z" fill="white"/>
<path d="M87.1658 32.5152V28.564L85.2501 31.8926H85.0824L83.1428 28.588V32.5152H82.8075V27.9175H83.0949L85.1543 31.4855L87.2137 27.9175H87.501V32.5152H87.1658Z" fill="white"/>
<path d="M92.8172 32.2279V32.5392H89.6323V27.9414H92.7214V28.2527H89.9676V30.0727H92.4341V30.36H89.9915V32.2518H92.8172V32.2279Z" fill="white"/>
<path d="M98.1813 27.9175V32.5152H97.846V30.3361H94.7569V32.5152H94.4216V27.9175H94.7569V30.0248H97.846V27.9175H98.1813Z" fill="white"/>
<path d="M103.234 28.2288H101.582V32.5392H101.246V28.2288H99.5941V27.9175H103.234V28.2288Z" fill="white"/>
<path d="M107.712 29.9529C107.999 30.1924 108.143 30.5516 108.143 31.0305C108.143 31.5095 107.999 31.8926 107.688 32.1321C107.377 32.3955 106.946 32.5152 106.395 32.5152H104.623V27.9175H104.958V29.5937H106.467C106.994 29.5937 107.425 29.7135 107.712 29.9529ZM107.425 31.9405C107.664 31.7489 107.784 31.4376 107.784 31.0545C107.784 30.2882 107.305 29.9051 106.371 29.9051H104.934V32.2518H106.371C106.85 32.2279 107.185 32.1321 107.425 31.9405ZM108.981 27.9175H109.316V32.5152H108.981V27.9175Z" fill="white"/>
<path d="M114.393 32.2519C114.034 32.0603 113.747 31.7729 113.531 31.4137C113.316 31.0545 113.22 30.6474 113.22 30.2164C113.22 29.7854 113.316 29.3783 113.531 29.0191C113.747 28.6599 114.034 28.3965 114.393 28.1809C114.752 27.9894 115.159 27.8696 115.614 27.8696C115.95 27.8696 116.261 27.9175 116.524 28.0373C116.812 28.133 117.051 28.3007 117.243 28.5162L117.027 28.7317C116.668 28.3725 116.189 28.1809 115.614 28.1809C115.231 28.1809 114.872 28.2767 114.561 28.4443C114.249 28.612 113.986 28.8514 113.818 29.1627C113.627 29.4741 113.555 29.8093 113.555 30.1925C113.555 30.5756 113.651 30.9109 113.818 31.2222C114.01 31.5335 114.249 31.7729 114.561 31.9406C114.872 32.1082 115.231 32.204 115.614 32.204C116.189 32.204 116.668 32.0124 117.027 31.6532L117.243 31.8687C117.051 32.0842 116.812 32.2279 116.524 32.3477C116.237 32.4674 115.926 32.5153 115.614 32.5153C115.159 32.5632 114.752 32.4434 114.393 32.2519Z" fill="white"/>
<path d="M119.494 32.2519C119.135 32.0363 118.847 31.7729 118.632 31.4137C118.416 31.0545 118.32 30.6714 118.32 30.2164C118.32 29.7854 118.416 29.3783 118.632 29.0191C118.847 28.6599 119.135 28.3725 119.494 28.1809C119.853 27.9654 120.26 27.8696 120.715 27.8696C121.17 27.8696 121.577 27.9654 121.936 28.1809C122.296 28.3725 122.583 28.6599 122.798 29.0191C123.014 29.3783 123.11 29.7854 123.11 30.2164C123.11 30.6474 123.014 31.0545 122.798 31.4137C122.583 31.7729 122.296 32.0363 121.936 32.2519C121.577 32.4434 121.17 32.5632 120.715 32.5632C120.26 32.5632 119.853 32.4434 119.494 32.2519ZM121.745 31.9885C122.056 31.8208 122.296 31.5814 122.487 31.2701C122.679 30.9587 122.751 30.6235 122.751 30.2403C122.751 29.8572 122.655 29.5219 122.487 29.2106C122.296 28.8993 122.056 28.6599 121.745 28.4922C121.433 28.3246 121.074 28.2288 120.691 28.2288C120.308 28.2288 119.949 28.3246 119.638 28.4922C119.326 28.6599 119.087 28.8993 118.895 29.2106C118.704 29.5219 118.632 29.8572 118.632 30.2403C118.632 30.6235 118.728 30.9587 118.895 31.2701C119.087 31.5814 119.326 31.8208 119.638 31.9885C119.949 32.1561 120.308 32.2519 120.691 32.2519C121.074 32.2519 121.433 32.1561 121.745 31.9885Z" fill="white"/>
<path d="M130.39 30.5277C130.557 30.7192 130.653 30.9827 130.653 31.294C130.653 31.6771 130.509 31.9884 130.246 32.2039C129.958 32.4195 129.551 32.5152 129.025 32.5152H127.037V27.9175H128.881C129.36 27.9175 129.743 28.0133 130.006 28.2288C130.27 28.4204 130.413 28.7317 130.413 29.0909C130.413 29.3543 130.342 29.5937 130.198 29.7614C130.054 29.9529 129.863 30.0727 129.623 30.1445C129.958 30.2164 130.222 30.3361 130.39 30.5277ZM127.372 30.0487H128.881C129.264 30.0487 129.551 29.9769 129.767 29.8093C129.982 29.6416 130.078 29.4261 130.078 29.1148C130.078 28.8035 129.982 28.588 129.767 28.4204C129.551 28.2527 129.264 28.1809 128.881 28.1809H127.372V30.0487ZM130.318 31.27C130.318 30.9348 130.198 30.6953 129.982 30.5516C129.767 30.4079 129.432 30.3121 129.001 30.3121H127.348V32.2279H129.001C129.887 32.2279 130.318 31.9166 130.318 31.27Z" fill="white"/>
<path d="M133.886 30.3361H132.784V32.5152H132.449V27.9175H132.784V30.0248H133.886L135.538 27.9175H135.921L134.149 30.1685L136.041 32.5392H135.658L133.886 30.3361Z" fill="white"/>
<path d="M140.83 27.9175L138.699 31.8447C138.555 32.1081 138.412 32.2997 138.22 32.4194C138.029 32.5392 137.837 32.611 137.621 32.611C137.454 32.611 137.286 32.5631 137.095 32.4913L137.19 32.2039C137.334 32.2758 137.478 32.2997 137.621 32.2997C137.933 32.2997 138.196 32.1321 138.388 31.7729L138.555 31.5095L136.664 27.9175H137.023L138.723 31.1982L140.471 27.9175H140.83Z" fill="white"/>
<path d="M142.866 32.2519C142.506 32.0603 142.219 31.7729 142.004 31.4137C141.788 31.0545 141.692 30.6474 141.692 30.2164C141.692 29.7854 141.788 29.3783 142.004 29.0191C142.219 28.6599 142.506 28.3965 142.866 28.1809C143.225 27.9894 143.632 27.8696 144.087 27.8696C144.422 27.8696 144.734 27.9175 144.997 28.0373C145.284 28.133 145.524 28.3007 145.715 28.5162L145.5 28.7317C145.141 28.3725 144.662 28.1809 144.087 28.1809C143.704 28.1809 143.345 28.2767 143.033 28.4443C142.722 28.612 142.459 28.8514 142.291 29.1627C142.099 29.4741 142.028 29.8093 142.028 30.1925C142.028 30.5756 142.123 30.9109 142.291 31.2222C142.483 31.5335 142.722 31.7729 143.033 31.9406C143.345 32.1082 143.704 32.204 144.087 32.204C144.662 32.204 145.141 32.0124 145.5 31.6532L145.715 31.8687C145.524 32.0842 145.284 32.2279 144.997 32.3477C144.71 32.4674 144.398 32.5153 144.087 32.5153C143.632 32.5632 143.225 32.4434 142.866 32.2519Z" fill="white"/>
<path d="M147.966 32.2519C147.607 32.0363 147.32 31.7729 147.104 31.4137C146.889 31.0545 146.793 30.6714 146.793 30.2164C146.793 29.7854 146.889 29.3783 147.104 29.0191C147.32 28.6599 147.607 28.3725 147.966 28.1809C148.326 27.9654 148.733 27.8696 149.188 27.8696C149.643 27.8696 150.05 27.9654 150.409 28.1809C150.768 28.3725 151.055 28.6599 151.271 29.0191C151.487 29.3783 151.582 29.7854 151.582 30.2164C151.582 30.6474 151.487 31.0545 151.271 31.4137C151.055 31.7729 150.768 32.0363 150.409 32.2519C150.05 32.4434 149.643 32.5632 149.188 32.5632C148.733 32.5632 148.326 32.4434 147.966 32.2519ZM150.241 31.9885C150.553 31.8208 150.792 31.5814 150.984 31.2701C151.151 30.9587 151.247 30.6235 151.247 30.2403C151.247 29.8572 151.151 29.5219 150.984 29.2106C150.792 28.8993 150.553 28.6599 150.241 28.4922C149.93 28.3246 149.571 28.2288 149.188 28.2288C148.804 28.2288 148.445 28.3246 148.134 28.4922C147.823 28.6599 147.583 28.8993 147.392 29.2106C147.2 29.5219 147.128 29.8572 147.128 30.2403C147.128 30.6235 147.224 30.9587 147.392 31.2701C147.583 31.5814 147.823 31.8208 148.134 31.9885C148.445 32.1561 148.804 32.2519 149.188 32.2519C149.571 32.2519 149.93 32.1561 150.241 31.9885Z" fill="white"/>
<path d="M157.665 32.5152V28.564L155.749 31.8926H155.581L153.642 28.588V32.5152H153.306V27.9175H153.594L155.653 31.4855L157.713 27.9175H158V32.5152H157.665Z" fill="white"/>
<path d="M15.9724 41.0628C16.619 41.422 17.4332 41.6376 18.2952 41.6376C19.1573 41.6376 19.9955 41.446 20.6181 41.0628L34.2437 33.2083C35.3213 32.5857 36.2073 31.2926 36.4708 30.0234C24.713 30.6939 17.0021 34.4057 11.9015 38.7161L15.9724 41.0628Z" fill="white"/>
<path d="M34.1958 9.42922L20.5941 1.57472C19.9476 1.19157 19.1334 1 18.2713 1C17.4092 1 16.5711 1.19157 15.9485 1.57472L2.32283 9.42922C1.00576 10.1955 0 11.9197 0 13.4523V29.1852C0 30.7178 1.00576 32.442 2.32283 33.2082L3.37648 33.8069C15.3019 27.8681 28.7839 28.1076 36.5186 28.9457V13.4523C36.5426 11.9197 35.5368 10.1955 34.1958 9.42922ZM25.575 25.7369H10.9436V18.1458C10.9436 17.9782 11.1352 17.6429 11.2789 17.5711L17.9121 13.7396C17.96 13.7157 18.0797 13.6678 18.2473 13.6678C18.415 13.6678 18.5347 13.7157 18.5826 13.7396L25.2158 17.5711C25.3595 17.6669 25.5511 17.9782 25.5511 18.1458V25.7369H25.575ZM29.8615 25.7369H27.7302V18.1458C27.7302 17.2119 27.1316 16.1822 26.3174 15.7032L19.6841 11.8718C19.301 11.6563 18.7981 11.5126 18.2713 11.5126C17.7445 11.5126 17.2655 11.6323 16.8584 11.8718L10.2252 15.7032C9.41103 16.1822 8.81237 17.2119 8.81237 18.1458V25.7369H6.68112V15.5356C6.68112 15.0806 7.06426 14.4101 7.47136 14.1946L17.4811 8.37557C17.6726 8.27978 17.96 8.20794 18.2713 8.20794C18.5826 8.20794 18.87 8.27978 19.0615 8.37557L29.0712 14.1707C29.4544 14.4101 29.8615 15.0567 29.8615 15.5117V25.7369ZM34.3874 25.7369H32.0167V15.5356C32.0167 14.3143 31.2264 12.9254 30.1728 12.3268L20.1152 6.50773C19.6123 6.22037 18.9418 6.05274 18.2713 6.05274C17.5768 6.05274 16.9303 6.22037 16.4274 6.50773L6.36981 12.3028C5.31616 12.9254 4.52592 14.2904 4.52592 15.5117V25.7369H2.1552V13.4523C2.1552 12.686 2.75387 11.6563 3.40042 11.2971L17.0261 3.44256C17.3374 3.25099 17.7924 3.1552 18.2713 3.1552C18.7502 3.1552 19.2052 3.25099 19.5165 3.44256L33.1422 11.2971C33.7887 11.6802 34.3874 12.7099 34.3874 13.4523V25.7369Z" fill="white"/>
</g>
<defs>
<clipPath id="clip0_975_172">
<rect width="158" height="40.6375" fill="white" transform="translate(0 0.53125)"/>
</clipPath>
</defs>
</svg>
