<svg width="82" height="79" viewBox="0 0 82 79" fill="none" xmlns="http://www.w3.org/2000/svg">
<path d="M8.43152 12.8032H22.5355V16.6365H17.6927V55.903H13.2936V16.6365H8.43152V12.8032Z" fill="white"/>
<path d="M29.8673 12.8032C34.5557 12.8032 37.2376 14.8658 37.2376 20.2362V24.3224C37.2376 28.8756 34.903 31.1133 31.7967 32.7089V33.2926L35.7134 32.9424C37.4692 34.2461 38.1059 37.6123 38.1059 41.6791V48.47C38.1059 53.8404 35.0574 55.903 29.848 55.903H24.5807V12.8032H29.8673ZM28.9797 16.8116V32.8256L30.0988 32.3586C32.3176 31.3468 32.8579 29.9458 32.8579 27.8638V21.715C32.8579 17.8818 31.9703 16.8116 29.4621 16.8116H28.9797ZM28.9797 34.7131V51.8946H29.4428C32.607 51.8946 33.7261 50.8244 33.7261 46.9912V38.021C33.7261 35.3552 32.6649 34.1293 30.6197 34.1293C29.983 34.1293 29.4621 34.3628 28.9797 34.7131Z" fill="white"/>
<path d="M41.5209 49.5987V20.178C41.5209 14.399 44.6852 12.2002 48.4861 12.2002C52.5765 12.2002 54.7567 14.0293 54.7567 19.1078V48.5285C54.7567 54.3076 51.5925 56.5064 47.7915 56.5064C43.7398 56.5064 41.5209 54.6773 41.5209 49.5987ZM45.92 19.5943V47.5945C45.92 51.8559 47.0969 52.498 48.5054 52.498C50.0296 52.498 50.3769 51.1943 50.3769 49.1317V21.1315C50.3769 16.8701 49.2579 16.228 48.1002 16.228C46.3252 16.228 45.92 17.5317 45.92 19.5943Z" fill="white"/>
<path d="M67.1049 39.9668C64.8861 39.9668 64.0565 40.784 63.7671 42.5742L61.8376 55.9224H57.3807L60.3713 39.85H64.2301L64.288 39.2079C60.7765 38.7993 58.2489 36.6589 58.2489 32.0084V20.2362C58.2489 14.8658 61.1817 12.8032 66.2174 12.8032H71.4847V55.9224H67.0857V39.9668H67.1049ZM67.1049 38.2545V16.8116H66.6419C63.7092 16.8116 62.6673 17.8818 62.6673 21.715V33.7596C62.6673 36.4254 63.1882 38.2545 66.0052 38.2545H67.1049Z" fill="white"/>
<path d="M13.0621 66.0019C12.4447 66.0019 11.9045 65.8657 11.48 65.5738C11.0362 65.282 10.7082 64.8928 10.4767 64.4064C10.2452 63.9004 10.1294 63.3362 10.1294 62.6746C10.1294 62.013 10.2452 61.4293 10.496 60.9428C10.7275 60.4369 11.0748 60.0672 11.5186 59.7753C11.9624 59.5029 12.4833 59.3667 13.1007 59.3667C13.7181 59.3667 14.2584 59.5029 14.7021 59.7948C15.1459 60.0672 15.4739 60.4758 15.7054 60.9623C15.937 61.4682 16.0527 62.0325 16.0527 62.6746C16.0527 63.3362 15.937 63.9199 15.7054 64.4064C15.4739 64.8928 15.1266 65.3014 14.6828 65.5738C14.2005 65.8657 13.6795 66.0019 13.0621 66.0019ZM13.0621 65.1847C13.7567 65.1847 14.2777 64.9512 14.6057 64.4842C14.953 64.0172 15.1073 63.414 15.1073 62.6746C15.1073 61.9157 14.9337 61.3125 14.6057 60.865C14.2584 60.4174 13.7567 60.1839 13.0621 60.1839C12.5991 60.1839 12.2132 60.2812 11.9045 60.4953C11.5958 60.7093 11.3835 61.0012 11.2292 61.3709C11.0748 61.7406 10.9977 62.1687 10.9977 62.6746C10.9977 63.4334 11.1713 64.0366 11.5186 64.4842C11.8659 64.9706 12.3868 65.1847 13.0621 65.1847Z" fill="white"/>
<path d="M19.7765 66.0214C19.1976 66.0214 18.696 65.8852 18.2908 65.6323C17.8664 65.3793 17.5576 65.0096 17.3261 64.5037C17.0946 63.9978 16.9788 63.3751 16.9595 62.6357C16.9402 62.3049 16.9595 61.9547 16.9788 61.5655C16.9981 61.1764 17.056 60.8067 17.1139 60.4564C17.1718 60.1062 17.2489 59.8143 17.3261 59.6003C17.4226 59.3084 17.5769 59.036 17.7506 58.8025C17.9435 58.5495 18.1558 58.3549 18.4066 58.1798C18.6381 58.0241 18.9082 57.8879 19.2169 57.7907C19.5256 57.6934 19.8344 57.635 20.1624 57.5766C20.4904 57.5182 20.8184 57.4793 21.1464 57.4404C21.4744 57.4015 21.7638 57.3626 22.0532 57.3042L22.1496 58.0825C21.9374 58.1214 21.6866 58.1604 21.3972 58.1993C21.1078 58.2382 20.7991 58.2771 20.4904 58.316C20.1816 58.3744 19.8729 58.4328 19.5835 58.5106C19.2941 58.5884 19.0433 58.7052 18.8504 58.8219C18.5416 59.0165 18.2908 59.3084 18.1365 59.6781C17.9821 60.0478 17.8664 60.4953 17.8278 61.0012C18.0593 60.6315 18.3873 60.3397 18.7732 60.1451C19.1591 59.9505 19.6028 59.8532 20.0659 59.8532C20.6254 59.8532 21.1078 59.9894 21.5129 60.2424C21.9181 60.4953 22.2268 60.865 22.4584 61.332C22.6706 61.799 22.7864 62.3244 22.7864 62.9276C22.7864 63.5503 22.6706 64.0951 22.4198 64.5621C22.1882 65.0291 21.8409 65.3793 21.3972 65.6323C20.9534 65.8852 20.3939 66.0214 19.7765 66.0214ZM19.8344 65.2042C20.4904 65.2042 20.992 64.9902 21.32 64.5815C21.6673 64.1729 21.8216 63.6281 21.8216 62.9471C21.8216 62.2466 21.648 61.7017 21.3007 61.2931C20.9534 60.8845 20.4518 60.6899 19.8151 60.6899C19.1784 60.6899 18.6767 60.8845 18.3487 61.2931C18.0014 61.7017 17.8278 62.2466 17.8278 62.9471C17.8278 63.6475 18.0014 64.1924 18.3487 64.601C18.696 64.9902 19.1976 65.2042 19.8344 65.2042Z" fill="white"/>
<path d="M26.5873 66.002C25.9506 66.002 25.4297 65.8658 24.9859 65.5739C24.5421 65.282 24.2141 64.8929 24.0019 64.4064C23.7704 63.9005 23.6546 63.3362 23.6546 62.6941C23.6546 62.0325 23.7897 61.4488 24.0212 60.9623C24.2527 60.4564 24.5807 60.0673 25.0245 59.7948C25.4682 59.5224 25.9892 59.3862 26.6066 59.3862C27.2433 59.3862 27.7835 59.5419 28.2466 59.8532C28.7097 60.1646 29.0377 60.5926 29.2113 61.1375L28.3817 61.4099C28.2273 61.0402 27.9958 60.7483 27.6871 60.5343C27.3784 60.3202 27.0118 60.2229 26.6066 60.2229C26.1435 60.2229 25.777 60.3202 25.4682 60.5343C25.1595 60.7483 24.9473 61.0402 24.793 61.4099C24.6386 61.7796 24.5807 62.2271 24.5614 62.7136C24.5614 63.4724 24.7351 64.0756 25.0824 64.5232C25.4297 64.9707 25.9313 65.2042 26.5873 65.2042C27.0118 65.2042 27.3784 65.1069 27.6678 64.9123C27.9572 64.7178 28.1887 64.4259 28.3431 64.0562L29.192 64.3091C28.9605 64.8734 28.6132 65.3015 28.1694 65.5934C27.745 65.8658 27.224 66.002 26.5873 66.002Z" fill="white"/>
<path d="M31.9318 65.827V60.3398H29.713V59.542H34.9802V60.3398H32.7614V65.827H31.9318Z" fill="white"/>
<path d="M37.6428 66.0018C37.1798 66.0018 36.7746 65.924 36.4659 65.7489C36.1572 65.5738 35.9064 65.3597 35.752 65.0679C35.5977 64.776 35.5205 64.4841 35.5205 64.1339C35.5205 63.7836 35.5977 63.4918 35.7327 63.2583C35.8678 63.0248 36.0607 62.8107 36.2922 62.655C36.5238 62.4994 36.7939 62.3826 37.1219 62.3048C37.4306 62.227 37.7779 62.1491 38.1638 62.0908C38.5497 62.0324 38.9162 61.974 39.2828 61.9351C39.6494 61.8962 39.9774 61.8378 40.2475 61.7989L39.9388 61.9935C39.9581 61.3708 39.8231 60.9038 39.5722 60.6119C39.3214 60.3201 38.8969 60.1644 38.2602 60.1644C37.8358 60.1644 37.4692 60.2617 37.1798 60.4563C36.8904 60.6509 36.6781 60.9622 36.5624 61.3708L35.7327 61.1179C35.8678 60.5536 36.1572 60.1255 36.6009 59.8142C37.0254 59.5028 37.5849 59.3472 38.2795 59.3472C38.8584 59.3472 39.3407 59.4639 39.7266 59.678C40.1318 59.892 40.4019 60.2033 40.5755 60.6119C40.6527 60.7871 40.7106 61.0011 40.7299 61.2151C40.7492 61.4486 40.7685 61.6627 40.7685 61.8962V65.8073H40.016V64.2312L40.2282 64.3284C40.016 64.8733 39.688 65.2819 39.2442 65.5543C38.8005 65.8656 38.2602 66.0018 37.6428 66.0018ZM37.7393 65.2624C38.1445 65.2624 38.4725 65.1846 38.7812 65.0484C39.0706 64.9122 39.3214 64.6982 39.4951 64.4647C39.6687 64.2312 39.7845 63.9393 39.8424 63.6085C39.8809 63.4139 39.9195 63.1804 39.9195 62.9469C39.9195 62.7134 39.9195 62.5188 39.9195 62.4021L40.2475 62.5772C39.9581 62.6161 39.6494 62.6551 39.3021 62.694C38.9548 62.7329 38.6268 62.7718 38.3181 62.8302C37.9901 62.8885 37.7007 62.9469 37.4306 63.0053C37.2569 63.0637 37.0833 63.122 36.9097 63.2193C36.736 63.3166 36.6009 63.4334 36.5045 63.589C36.408 63.7447 36.3501 63.9198 36.3501 64.1533C36.3501 64.3285 36.3887 64.5036 36.4852 64.6787C36.5817 64.8538 36.7167 64.99 36.9289 65.1068C37.1412 65.2235 37.4113 65.2624 37.7393 65.2624Z" fill="white"/>
<path d="M42.2734 65.827V59.542H43.1224V62.2661H46.6339V59.542H47.4828V65.827H46.6339V63.0834H43.1224V65.827H42.2734Z" fill="white"/>
<path d="M51.689 66.0019C51.0715 66.0019 50.5313 65.8657 50.1068 65.5738C49.6631 65.282 49.3351 64.8928 49.1036 64.4064C48.872 63.9004 48.7563 63.3362 48.7563 62.6746C48.7563 62.013 48.872 61.4293 49.1228 60.9428C49.3544 60.4369 49.7017 60.0672 50.1454 59.7753C50.5892 59.5029 51.1101 59.3667 51.7276 59.3667C52.345 59.3667 52.8852 59.5029 53.329 59.7948C53.7727 60.0672 54.1007 60.4758 54.3323 60.9623C54.5638 61.4682 54.6795 62.0325 54.6795 62.6746C54.6795 63.3362 54.5638 63.9199 54.3323 64.4064C54.1007 64.8928 53.7534 65.3014 53.3097 65.5738C52.8466 65.8657 52.3064 66.0019 51.689 66.0019ZM51.689 65.1847C52.3835 65.1847 52.9045 64.9512 53.2325 64.4842C53.5798 64.0172 53.7341 63.414 53.7341 62.6746C53.7341 61.9157 53.5605 61.3125 53.2325 60.865C52.8852 60.4174 52.3835 60.1839 51.689 60.1839C51.2259 60.1839 50.84 60.2812 50.5313 60.4953C50.2226 60.7093 50.0104 61.0012 49.856 61.3709C49.7017 61.7406 49.6245 62.1687 49.6245 62.6746C49.6245 63.4334 49.7981 64.0366 50.1454 64.4842C50.4927 64.9317 51.0137 65.1847 51.689 65.1847Z" fill="white"/>
<path d="M55.9144 65.827V59.542H58.4805C58.6155 59.542 58.7699 59.542 58.9628 59.5615C59.1558 59.5809 59.3294 59.6004 59.4838 59.6393C59.8311 59.7366 60.1205 59.9312 60.3327 60.2036C60.545 60.476 60.6607 60.8457 60.6607 61.2349C60.6607 61.4683 60.6221 61.6629 60.5643 61.838C60.5064 62.0132 60.4099 62.1688 60.2748 62.2856C60.217 62.344 60.1591 62.4023 60.0819 62.4607C60.0047 62.5191 59.9468 62.558 59.889 62.5775C60.0047 62.5969 60.1398 62.6553 60.2941 62.7331C60.5257 62.8693 60.68 63.0445 60.7958 63.2585C60.9115 63.4725 60.9694 63.7449 60.9694 64.0757C60.9694 64.5038 60.873 64.8541 60.6607 65.1265C60.4485 65.3989 60.1784 65.5935 59.8504 65.6908C59.696 65.7297 59.5224 65.7686 59.3487 65.7686C59.1751 65.7686 59.0014 65.7881 58.8471 65.7881H55.9144V65.827ZM56.7633 62.3245H58.4998C58.5963 62.3245 58.712 62.3245 58.8471 62.305C58.9628 62.2856 59.0786 62.2661 59.1751 62.2272C59.368 62.1494 59.5224 62.0326 59.6188 61.8575C59.7153 61.6824 59.7539 61.5073 59.7539 61.2932C59.7539 61.0792 59.696 60.8846 59.5995 60.7095C59.5031 60.5344 59.3487 60.4176 59.1365 60.3592C59.0014 60.3009 58.8471 60.2814 58.6927 60.2814C58.5384 60.2814 58.4226 60.2619 58.384 60.2619H56.7633V62.3245ZM56.7633 65.107H58.7699C58.8471 65.107 58.9435 65.107 59.0786 65.0876C59.1944 65.0681 59.3101 65.0486 59.4066 65.0292C59.6381 64.9708 59.7925 64.8541 59.9083 64.6789C60.024 64.5038 60.0626 64.3092 60.0626 64.0952C60.0626 63.8228 59.9854 63.5893 59.8311 63.4142C59.6767 63.239 59.4645 63.1223 59.1944 63.0834C59.0979 63.0639 59.0207 63.0445 58.9243 63.0445C58.8278 63.0445 58.7506 63.0445 58.6734 63.0445H56.7826V65.107H56.7633Z" fill="white"/>
<path d="M62.0885 65.827V59.542H62.9374V62.5775L65.7158 59.542H66.8541L63.9407 62.6942L67.24 65.8464H66.0052L62.9374 62.811V65.8464H62.0885V65.827Z" fill="white"/>
<path d="M69.6132 66.0018C69.1501 66.0018 68.745 65.924 68.4363 65.7489C68.1276 65.5738 67.8767 65.3597 67.7224 65.0679C67.568 64.776 67.4908 64.4841 67.4908 64.1339C67.4908 63.7836 67.568 63.4918 67.7031 63.2583C67.8381 63.0248 68.0311 62.8107 68.2626 62.655C68.4941 62.4994 68.7643 62.3826 69.0923 62.3048C69.401 62.227 69.7483 62.1491 70.1341 62.0908C70.52 62.0324 70.8866 61.974 71.2532 61.9351C71.6198 61.8962 71.9478 61.8378 72.2179 61.7989L71.9092 61.9935C71.9285 61.3708 71.7934 60.9038 71.5426 60.6119C71.2918 60.3201 70.848 60.1644 70.2306 60.1644C69.8061 60.1644 69.4396 60.2617 69.1501 60.4563C68.8607 60.6509 68.6485 60.9622 68.5327 61.3708L67.7031 61.1179C67.8381 60.5536 68.1276 60.1255 68.5713 59.8142C68.9958 59.5028 69.5553 59.3472 70.2499 59.3472C70.8287 59.3472 71.3111 59.4639 71.697 59.678C72.1021 59.892 72.3723 60.2033 72.5459 60.6119C72.6231 60.7871 72.681 61.0011 72.7003 61.2151C72.7196 61.4292 72.7388 61.6627 72.7388 61.8962V65.8073H71.9864V64.2312L72.1986 64.3284C71.9864 64.8733 71.6584 65.2819 71.2146 65.5543C70.7708 65.8656 70.2306 66.0018 69.6132 66.0018ZM69.7097 65.2624C70.1148 65.2624 70.4428 65.1846 70.7516 65.0484C71.041 64.9122 71.2918 64.6982 71.4654 64.4647C71.6391 64.2312 71.7548 63.9393 71.8127 63.6085C71.8513 63.4139 71.8899 63.1804 71.8899 62.9469C71.8899 62.7134 71.8899 62.5188 71.8899 62.4021L72.2179 62.5772C71.9285 62.6161 71.6198 62.6551 71.2725 62.694C70.9445 62.7329 70.5972 62.7718 70.2885 62.8302C69.9605 62.8885 69.6711 62.9469 69.401 63.0053C69.2273 63.0637 69.0537 63.122 68.88 63.2193C68.7064 63.3166 68.5713 63.4334 68.4748 63.589C68.3784 63.7447 68.3205 63.9198 68.3205 64.1533C68.3205 64.3285 68.3591 64.5036 68.4556 64.6787C68.552 64.8538 68.6871 64.99 68.8993 65.1068C69.1116 65.2235 69.3817 65.2624 69.7097 65.2624Z" fill="white"/>
</svg>
