<svg width="158" height="41" viewBox="0 0 158 41" fill="none" xmlns="http://www.w3.org/2000/svg">
<g clip-path="url(#clip0_940_223)">
<path d="M58.6693 22.6508V27.2725H56.1788V24.8539H47.9412V27.2725H45.4507L45.4747 22.6508H45.9297C46.6241 22.6269 47.127 22.124 47.4144 21.1182C47.7017 20.1125 47.8694 18.6996 47.9412 16.8318L48.0849 13.1919H57.0649V22.6508H58.6693ZM49.9767 20.5914C49.809 21.5253 49.5217 22.2198 49.1625 22.6748H54.3828V15.395H50.3838L50.3359 17.0952C50.264 18.4841 50.1443 19.6335 49.9767 20.5914Z" fill="white"/>
<path d="M62.7881 24.2789C61.8063 23.752 61.064 23.0336 60.5132 22.1237C59.9624 21.2137 59.699 20.184 59.699 19.0346C59.699 17.8851 59.9864 16.8554 60.5132 15.9454C61.04 15.0355 61.8303 14.3171 62.7881 13.7902C63.7699 13.2634 64.8475 13 66.0688 13C67.2901 13 68.3677 13.2634 69.3256 13.7902C70.2834 14.3171 71.0497 15.0355 71.6005 15.9454C72.1513 16.8554 72.4386 17.8851 72.4386 19.0346C72.4386 20.184 72.1513 21.2137 71.6005 22.1237C71.0497 23.0336 70.2834 23.752 69.3256 24.2789C68.3677 24.8057 67.2661 25.0691 66.0688 25.0691C64.8475 25.0452 63.746 24.8057 62.7881 24.2789ZM67.9367 22.2913C68.4874 21.98 68.9185 21.525 69.2537 20.9742C69.565 20.3995 69.7327 19.753 69.7327 19.0346C69.7327 18.3162 69.565 17.6696 69.2537 17.0949C68.9424 16.5202 68.5114 16.0891 67.9367 15.7778C67.3859 15.4665 66.7633 15.2989 66.0688 15.2989C65.3744 15.2989 64.7517 15.4665 64.201 15.7778C63.6502 16.0891 63.2192 16.5441 62.8839 17.0949C62.5726 17.6696 62.405 18.3162 62.405 19.0346C62.405 19.753 62.5726 20.3995 62.8839 20.9742C63.1952 21.549 63.6263 21.98 64.201 22.2913C64.7517 22.6026 65.3744 22.7702 66.0688 22.7702C66.7393 22.7463 67.3619 22.6026 67.9367 22.2913Z" fill="white"/>
<path d="M85.1543 24.8539L85.1304 17.8615L81.706 23.6087H80.5087L77.0843 17.9812V24.83H74.5459V13.1919H76.773L81.1313 20.4477L85.4417 13.1919H87.6687L87.6926 24.8539H85.1543Z" fill="white"/>
<path d="M105.82 13.1919L100.863 22.4353C100.384 23.3213 99.8097 23.9919 99.1392 24.4468C98.4687 24.9018 97.7263 25.1413 96.9361 25.1413C96.3135 25.1413 95.6909 24.9976 95.0443 24.7342L95.6909 22.6748C96.1458 22.8185 96.5529 22.8903 96.8642 22.8903C97.1995 22.8903 97.4868 22.8185 97.7742 22.6508C98.0376 22.4832 98.2771 22.2437 98.5166 21.8845L98.6123 21.7409L94.0146 13.168H96.8882L99.9773 19.442L103.186 13.168H105.82V13.1919Z" fill="white"/>
<path d="M119.829 13.6948C120.595 14.03 121.17 14.5329 121.577 15.1555C121.984 15.7781 122.2 16.5444 122.2 17.4065C122.2 18.2686 121.984 19.0109 121.577 19.6575C121.17 20.304 120.571 20.783 119.829 21.1182C119.063 21.4535 118.177 21.6211 117.147 21.6211H114.8V24.83H112.094V13.1919H117.147C118.177 13.1919 119.063 13.3595 119.829 13.6948ZM118.823 18.9151C119.254 18.5559 119.446 18.077 119.446 17.4305C119.446 16.7839 119.23 16.281 118.823 15.9218C118.392 15.5626 117.794 15.395 116.979 15.395H114.776V19.442H116.979C117.794 19.442 118.416 19.2743 118.823 18.9151Z" fill="white"/>
<path d="M133.024 22.6987V24.8539H123.996V13.1919H132.808V15.3471H126.678V17.8854H132.09V19.9927H126.678V22.6987H133.024Z" fill="white"/>
<path d="M139.729 20.1604H137.861V24.8539H135.179V13.1919H137.861V17.9094H139.801L142.866 13.1919H145.715L141.908 18.8194L145.835 24.8539H142.77L139.729 20.1604Z" fill="white"/>
<path d="M147.08 13.1919H149.762V20.783L155.318 13.1919H157.856V24.8539H155.198V17.2628L149.643 24.8539H147.08V13.1919Z" fill="white"/>
<path d="M15.9724 40.0628C16.619 40.422 17.4332 40.6376 18.2952 40.6376C19.1573 40.6376 19.9955 40.446 20.6181 40.0628L34.2437 32.2083C35.3213 31.5857 36.2073 30.2926 36.4708 29.0234C24.7129 29.6939 17.0021 33.4057 11.9015 37.7161L15.9724 40.0628Z" fill="white"/>
<path d="M34.1958 8.42922L20.5941 0.57472C19.9476 0.191573 19.1334 0 18.2713 0C17.4092 0 16.5711 0.191573 15.9485 0.57472L2.32283 8.42922C1.00576 9.19551 0 10.9197 0 12.4523V28.1852C0 29.7178 1.00576 31.442 2.32283 32.2082L3.37648 32.8069C15.3019 26.8681 28.7839 27.1076 36.5186 27.9457V12.4523C36.5426 10.9197 35.5368 9.19551 34.1958 8.42922ZM25.575 24.7369H10.9436V17.1458C10.9436 16.9782 11.1352 16.6429 11.2789 16.5711L17.9121 12.7396C17.96 12.7157 18.0797 12.6678 18.2473 12.6678C18.415 12.6678 18.5347 12.7157 18.5826 12.7396L25.2158 16.5711C25.3595 16.6669 25.5511 16.9782 25.5511 17.1458V24.7369H25.575ZM29.8615 24.7369H27.7302V17.1458C27.7302 16.2119 27.1316 15.1822 26.3174 14.7032L19.6841 10.8718C19.301 10.6563 18.7981 10.5126 18.2713 10.5126C17.7445 10.5126 17.2655 10.6323 16.8584 10.8718L10.2252 14.7032C9.41103 15.1822 8.81237 16.2119 8.81237 17.1458V24.7369H6.68112V14.5356C6.68112 14.0806 7.06426 13.4101 7.47136 13.1946L17.4811 7.37557C17.6726 7.27978 17.96 7.20794 18.2713 7.20794C18.5826 7.20794 18.87 7.27978 19.0615 7.37557L29.0712 13.1707C29.4544 13.4101 29.8615 14.0567 29.8615 14.5117V24.7369ZM34.3874 24.7369H32.0167V14.5356C32.0167 13.3143 31.2264 11.9254 30.1728 11.3268L20.1152 5.50773C19.6123 5.22037 18.9418 5.05274 18.2713 5.05274C17.5768 5.05274 16.9303 5.22037 16.4274 5.50773L6.36981 11.3028C5.31616 11.9254 4.52592 13.2904 4.52592 14.5117V24.7369H2.1552V12.4523C2.1552 11.686 2.75386 10.6563 3.40042 10.2971L17.0261 2.44256C17.3374 2.25099 17.7924 2.1552 18.2713 2.1552C18.7502 2.1552 19.2052 2.25099 19.5165 2.44256L33.1422 10.2971C33.7887 10.6802 34.3874 11.7099 34.3874 12.4523V24.7369Z" fill="white"/>
</g>
<defs>
<clipPath id="clip0_940_223">
<rect width="158" height="40.6375" fill="white"/>
</clipPath>
</defs>
</svg>
