<svg width="31" height="31" viewBox="0 0 31 31" fill="none" xmlns="http://www.w3.org/2000/svg">
<path d="M10.9293 21.778C10.3571 21.3124 9.75103 20.8994 9.24356 20.3916C8.00062 19.1424 7.30487 17.6218 7.14895 15.8677C7.12835 15.6342 7.09599 15.4007 7.09158 15.1672C7.0857 14.8855 7.24162 14.7367 7.52551 14.7236C7.61523 14.7192 7.70643 14.7221 7.79616 14.7221C12.0325 14.7221 16.2673 14.7221 20.5036 14.7221C21.1655 14.7221 21.192 14.7454 21.2493 15.3657C21.5126 15.2533 21.7686 15.1103 22.0422 15.0359C23.0306 14.7703 23.9191 15.4109 23.9911 16.4208C24.1029 17.9895 23.1424 19.5087 21.542 20.2924C20.6977 20.7068 19.7975 20.8557 18.8649 20.8717C18.712 20.8746 18.5443 20.9403 18.4119 21.0235C18.0559 21.2468 17.7161 21.4949 17.3028 21.778C17.4793 21.778 17.5867 21.778 17.6941 21.778C19.0459 21.778 20.3977 21.7765 21.7494 21.778C22.2834 21.778 22.4173 21.9399 22.3172 22.4522C22.1084 23.5131 21.314 24.1786 20.2359 24.1786C16.1923 24.1815 12.1472 24.1815 8.10358 24.1786C6.9842 24.1786 6.06634 23.3774 6.00456 22.3617C5.97661 21.8991 6.08546 21.7794 6.55175 21.778C7.89177 21.7765 9.23326 21.778 10.5733 21.778C10.6954 21.778 10.8189 21.778 10.9293 21.778ZM19.3621 20.1172C20.6963 20.018 21.7642 19.5773 22.557 18.5937C23.0542 17.9764 23.3616 17.2774 23.2645 16.4645C23.1865 15.8137 22.6423 15.5204 22.0333 15.7903C21.8818 15.8575 21.7347 15.9494 21.6097 16.0588C21.3038 16.3259 21.0655 16.628 20.9684 17.0468C20.708 18.1705 20.1564 19.1585 19.3621 20.1172Z" fill="#4A4A47"/>
<path d="M12.4927 10.9179C12.5648 10.6231 12.7016 10.0511 12.8457 9.48191C12.9384 9.11416 12.9472 8.76246 12.7457 8.4166C12.6295 8.21667 12.6163 8.00653 12.8619 7.87227C13.1164 7.73363 13.2635 7.8854 13.3826 8.0795C13.7062 8.60048 13.6959 9.15648 13.5415 9.72416C13.4709 9.98246 13.39 10.2364 13.3194 10.4932C13.1267 11.1981 13.184 11.8635 13.6533 12.4575C13.821 12.6691 13.8827 12.8924 13.6283 13.0646C13.39 13.2251 13.2105 13.0835 13.0634 12.8822C12.7045 12.3801 12.4692 11.8373 12.4927 10.9179Z" fill="#4A4A47"/>
<path d="M15.0891 10.7835C15.045 10.8988 15.0332 10.9674 14.9965 11.0199C14.7273 11.4081 14.842 11.7642 15.0362 12.1465C15.1995 12.4676 15.3318 12.8178 15.3936 13.1695C15.4657 13.5752 15.2259 13.905 14.9273 14.1531C14.8347 14.2305 14.564 14.2407 14.4949 14.1692C14.4007 14.0714 14.3419 13.7839 14.4096 13.7168C14.8553 13.2717 14.6434 12.8748 14.3904 12.4515C14.0448 11.8751 13.9683 11.2739 14.3698 10.6931C14.4478 10.5792 14.667 10.5106 14.817 10.515C14.9141 10.5194 15.0068 10.696 15.0891 10.7835Z" fill="#4A4A47"/>
<rect x="0.5" y="1.5" width="29.011" height="28.9947" rx="5.5" stroke="#4A4A47"/>
<rect x="0.5" y="1.45248" width="29" height="29" rx="5.5" stroke="#4A4A47"/>
</svg>
