<svg width="31" height="30" viewBox="0 0 31 30" fill="none" xmlns="http://www.w3.org/2000/svg">
<g opacity="0.7">
<path d="M8.84521 19.8855C8.32985 19.8855 7.81986 19.8908 7.3045 19.8855C6.71399 19.8801 6.22547 19.5258 6.06442 18.9836C6.02147 18.8333 6 18.6669 6 18.5112C6 15.462 6 12.4181 6 9.36892C6 8.5422 6.5422 8 7.37429 8C10.5899 8 13.8055 8 17.0158 8C18.8625 8 20.7146 8 22.5613 8C23.4846 8 24 8.51536 24 9.44408C24 12.4503 24 15.4566 24 18.4629C24 19.3594 23.4739 19.8855 22.5774 19.8855C22.105 19.8855 21.6272 19.8855 21.1172 19.8855C21.1763 19.9553 21.2085 19.9982 21.2514 20.0358C21.6165 20.4008 21.9815 20.7659 22.3466 21.1309C22.5291 21.3135 22.5452 21.496 22.4056 21.6409C22.266 21.7859 22.0781 21.7644 21.8956 21.5872C21.3695 21.0611 20.8488 20.535 20.3173 20.0143C20.2475 19.9445 20.1241 19.8908 20.0274 19.8908C16.6776 19.8855 13.3331 19.8855 9.9833 19.8908C9.88667 19.8908 9.7632 19.9445 9.69341 20.0143C9.18879 20.5028 8.6949 21.0021 8.19565 21.5013C8.15807 21.5389 8.12049 21.5765 8.08291 21.6141C7.92186 21.7644 7.73934 21.7751 7.60513 21.6463C7.47092 21.5121 7.47629 21.3242 7.63197 21.1685C7.99165 20.8035 8.35133 20.4492 8.71101 20.0895C8.76469 20.0358 8.82374 19.9928 8.88279 19.9499C8.86669 19.9284 8.85595 19.9069 8.84521 19.8855ZM14.9973 9.44408C12.7802 9.44408 10.5631 9.44408 8.35133 9.44408C7.65344 9.44408 7.26693 9.82523 7.26693 10.5231C7.26693 12.8047 7.26693 15.0916 7.26693 17.3731C7.26693 18.0656 7.65344 18.4468 8.35133 18.4468C12.7856 18.4468 17.2144 18.4468 21.6487 18.4468C22.3466 18.4468 22.7331 18.0656 22.7331 17.3677C22.7331 15.0862 22.7331 12.7993 22.7331 10.5177C22.7331 9.81986 22.3466 9.44408 21.6487 9.44408C19.4316 9.44408 17.2144 9.44408 14.9973 9.44408Z" fill="black"/>
<path d="M15.0242 10.0881C17.2252 10.0881 19.4316 10.0881 21.6326 10.0881C22.003 10.0881 22.0943 10.1794 22.0943 10.5498C22.0943 12.8152 22.0943 15.0753 22.0943 17.3407C22.0943 17.7112 22.003 17.8024 21.6326 17.8024C17.2144 17.8024 12.7963 17.8024 8.37281 17.8024C8.00239 17.8024 7.91113 17.7112 7.91113 17.3407C7.91113 15.0753 7.91113 12.8152 7.91113 10.5498C7.91113 10.1794 8.00239 10.0881 8.37281 10.0881C10.5899 10.0881 12.807 10.0881 15.0242 10.0881Z" fill="black"/>
<path d="M24.323 29.9947C18.1118 29.9947 11.9006 29.9947 5.68949 29.9947C5.44218 29.9472 5.18537 29.9186 4.94757 29.8616C2.03698 29.2148 0.0204949 26.7322 0.0109832 23.736C-0.00804026 17.9053 0.00147147 12.0746 0.0109832 6.25344C0.0109832 5.15007 0.2678 4.10378 0.838504 3.15261C2.09405 1.06954 3.95835 0.0137392 6.38384 0.00422744C12.1289 -0.0052843 17.8835 0.00422744 23.6286 0.00422744C23.7808 0.00422744 23.9425 0.00422744 24.0947 0.0137392C26.758 0.251532 28.6128 1.59269 29.602 4.07525C29.8017 4.57937 29.8778 5.14056 30.011 5.68273C30.011 11.8939 30.011 18.1051 30.011 24.3162C29.992 24.4113 29.9634 24.5065 29.9539 24.5921C29.5544 27.008 28.2228 28.7011 25.94 29.5952C25.4168 29.7855 24.8556 29.8616 24.323 29.9947ZM15.03 1.13612C12.167 1.13612 9.31346 1.1171 6.45043 1.14564C5.84168 1.15515 5.19488 1.23124 4.61466 1.42148C2.44599 2.14437 1.14288 4.0372 1.14288 6.3866C1.13337 12.1222 1.13337 17.8673 1.15239 23.6028C1.15239 24.2116 1.238 24.8394 1.43774 25.4101C2.17966 27.5692 4.06298 28.8533 6.42189 28.8533C12.1384 28.8533 17.8645 28.8533 23.5811 28.8533C24.0186 28.8533 24.4656 28.8153 24.8842 28.7201C27.3001 28.1494 28.8506 26.171 28.8601 23.6409C28.8696 17.8768 28.8696 12.1222 28.8601 6.35806C28.8601 4.57937 28.1562 3.1431 26.7199 2.0873C25.7783 1.40245 24.713 1.13612 23.5525 1.13612C20.718 1.13612 17.874 1.13612 15.03 1.13612Z" fill="black"/>
</g>
</svg>
