<svg width="31" height="30" viewBox="0 0 31 30" fill="none" xmlns="http://www.w3.org/2000/svg">
<g opacity="0.7">
<path d="M6.49961 12.6479C5.99406 12.1424 5.49419 11.6482 5 11.154C10.1521 5.78039 19.3599 5.45661 24.9437 11.1426C24.4438 11.6368 23.9439 12.1367 23.4384 12.6366C21.0924 10.3644 18.2636 9.17155 14.9804 9.16587C11.6914 9.16587 8.86263 10.3644 6.49961 12.6479Z" fill="black"/>
<path d="M9.54996 15.6927C9.04441 15.1872 8.55022 14.693 8.05603 14.1988C11.4358 10.6088 17.9853 10.2112 21.7911 14.1931C21.2969 14.6873 20.797 15.1815 20.2858 15.6927C18.7975 14.2726 17.0082 13.5285 14.9236 13.5228C12.8389 13.5228 11.0439 14.267 9.54996 15.6927Z" fill="black"/>
<path d="M18.7294 17.3343C18.2295 17.8455 17.7353 18.3397 17.2468 18.8395C16.0539 17.6012 14.0261 17.5672 12.6969 18.8395C12.2027 18.3454 11.7085 17.8455 11.2143 17.3513C12.9298 15.3632 16.5936 15.0394 18.7294 17.3343Z" fill="black"/>
<path d="M14.969 22.2479C14.3669 22.2479 13.8897 21.7651 13.8897 21.1687C13.8897 20.5722 14.3725 20.0837 14.969 20.0894C15.5654 20.0894 16.0482 20.5722 16.0482 21.1743C16.0482 21.7708 15.5711 22.2479 14.969 22.2479Z" fill="black"/>
<path d="M24.323 29.9947C18.1118 29.9947 11.9006 29.9947 5.68949 29.9947C5.44218 29.9472 5.18537 29.9186 4.94757 29.8616C2.03698 29.2148 0.0204949 26.7322 0.0109832 23.736C-0.00804026 17.9053 0.00147147 12.0746 0.0109832 6.25344C0.0109832 5.15007 0.2678 4.10378 0.838504 3.15261C2.09405 1.06954 3.95835 0.0137392 6.38384 0.00422744C12.1289 -0.0052843 17.8835 0.00422744 23.6286 0.00422744C23.7808 0.00422744 23.9425 0.00422744 24.0947 0.0137392C26.758 0.251532 28.6128 1.59269 29.602 4.07525C29.8017 4.57937 29.8778 5.14056 30.011 5.68273C30.011 11.8939 30.011 18.1051 30.011 24.3162C29.992 24.4113 29.9634 24.5065 29.9539 24.5921C29.5544 27.008 28.2228 28.7011 25.94 29.5952C25.4168 29.7855 24.8556 29.8616 24.323 29.9947ZM15.03 1.13612C12.167 1.13612 9.31346 1.1171 6.45043 1.14564C5.84168 1.15515 5.19488 1.23124 4.61466 1.42148C2.44599 2.14437 1.14288 4.0372 1.14288 6.3866C1.13337 12.1222 1.13337 17.8673 1.15239 23.6028C1.15239 24.2116 1.238 24.8394 1.43774 25.4101C2.17966 27.5692 4.06298 28.8533 6.42189 28.8533C12.1384 28.8533 17.8645 28.8533 23.5811 28.8533C24.0186 28.8533 24.4656 28.8153 24.8842 28.7201C27.3001 28.1494 28.8506 26.171 28.8601 23.6409C28.8696 17.8768 28.8696 12.1222 28.8601 6.35806C28.8601 4.57937 28.1562 3.1431 26.7199 2.0873C25.7783 1.40245 24.713 1.13612 23.5525 1.13612C20.718 1.13612 17.874 1.13612 15.03 1.13612Z" fill="black"/>
</g>
</svg>
